# Blender v2.80 (sub 75) OBJ File: ''
# www.blender.org
mtllib brokenRing.mtl
o Circle_Circle.001
v 0.000000 0.000000 -1.000000
v -0.000000 0.195090 -0.980785
v -0.000000 0.382683 -0.923880
v -0.000000 0.555570 -0.831470
v -0.000000 0.707107 -0.707107
v -0.000000 0.831470 -0.555570
v -0.000000 0.923880 -0.382683
v -0.000000 0.980785 -0.195090
v -0.000000 1.000000 -0.000000
v -0.000000 0.980785 0.195090
v -0.000000 0.923880 0.382683
v -0.000000 0.831470 0.555570
v -0.000000 0.707107 0.707107
v -0.000000 0.195090 0.980785
v 0.000000 -0.000000 1.000000
v 0.000000 -0.195091 0.980785
v 0.000000 -0.382684 0.923879
v 0.000000 -0.555571 0.831469
v 0.000000 -0.707107 0.707106
v 0.000000 -1.000000 -0.000001
v 0.000000 -0.980785 -0.195091
v 0.000000 -0.923879 -0.382684
v 0.000000 -0.831469 -0.555571
v 0.000000 -0.707106 -0.707108
v 0.000000 -0.555569 -0.831470
v 0.000000 -0.382682 -0.923880
v 0.000000 -0.195089 -0.980786
v -0.000000 0.171114 -0.860249
v -0.000000 0.000000 -0.877102
v -0.000000 0.335653 -0.810337
v -0.000000 0.487292 -0.729284
v -0.000000 0.620205 -0.620205
v -0.000000 0.729284 -0.487292
v -0.000000 0.810337 -0.335653
v -0.000000 0.860249 -0.171114
v -0.000000 0.877102 -0.000000
v -0.000000 0.860249 0.171114
v -0.000000 0.810337 0.335652
v -0.000000 0.729284 0.487292
v -0.000000 0.620205 0.620205
v -0.000000 0.171114 0.860249
v 0.000000 -0.000000 0.877102
v 0.000000 -0.171114 0.860249
v 0.000000 -0.335653 0.810337
v 0.000000 -0.487292 0.729284
v 0.000000 -0.620205 0.620205
v 0.000000 -0.877102 -0.000001
v 0.000000 -0.860249 -0.171115
v 0.000000 -0.810336 -0.335653
v 0.000000 -0.729283 -0.487293
v 0.000000 -0.620204 -0.620206
v 0.000000 -0.487291 -0.729285
v 0.000000 -0.335651 -0.810337
v 0.000000 -0.171113 -0.860249
vt 0.000000 0.000000
vt 0.000000 0.000000
vt 0.000000 0.000000
vt 0.000000 0.000000
vt 0.000000 0.000000
vt 0.000000 0.000000
vt 0.000000 0.000000
vt 0.000000 0.000000
vt 0.000000 0.000000
vt 0.000000 0.000000
vt 0.000000 0.000000
vt 0.000000 0.000000
vt 0.000000 0.000000
vt 0.000000 0.000000
vt 0.000000 0.000000
vt 0.000000 0.000000
vt 0.000000 0.000000
vt 0.000000 0.000000
vt 0.000000 0.000000
vt 0.000000 0.000000
vt 0.000000 0.000000
vt 0.000000 0.000000
vt 0.000000 0.000000
vt 0.000000 0.000000
vt 0.000000 0.000000
vt 0.000000 0.000000
vt 0.000000 0.000000
vt 0.000000 0.000000
vt 0.000000 0.000000
vt 0.000000 0.000000
vt 0.000000 0.000000
vt 0.000000 0.000000
vt 0.000000 0.000000
vt 0.000000 0.000000
vt 0.000000 0.000000
vt 0.000000 0.000000
vt 0.000000 0.000000
vt 0.000000 0.000000
vt 0.000000 0.000000
vt 0.000000 0.000000
vt 0.000000 0.000000
vt 0.000000 0.000000
vt 0.000000 0.000000
vt 0.000000 0.000000
vt 0.000000 0.000000
vt 0.000000 0.000000
vt 0.000000 0.000000
vt 0.000000 0.000000
vt 0.000000 0.000000
vt 0.000000 0.000000
vt 0.000000 0.000000
vt 0.000000 0.000000
vt 0.000000 0.000000
vt 0.000000 0.000000
vn 1.0000 0.0000 0.0000
usemtl None
s off
f 1/1/1 2/2/1 28/3/1 29/4/1
f 2/2/1 3/5/1 30/6/1 28/3/1
f 24/7/1 25/8/1 52/9/1 51/10/1
f 14/11/1 15/12/1 42/13/1 41/14/1
f 3/5/1 4/15/1 31/16/1 30/6/1
f 4/15/1 5/17/1 32/18/1 31/16/1
f 26/19/1 27/20/1 54/21/1 53/22/1
f 16/23/1 17/24/1 44/25/1 43/26/1
f 5/17/1 6/27/1 33/28/1 32/18/1
f 27/20/1 1/1/1 29/4/1 54/21/1
f 17/24/1 18/29/1 45/30/1 44/25/1
f 6/27/1 7/31/1 34/32/1 33/28/1
f 18/29/1 19/33/1 46/34/1 45/30/1
f 7/31/1 8/35/1 35/36/1 34/32/1
f 8/35/1 9/37/1 36/38/1 35/36/1
f 9/37/1 10/39/1 37/40/1 36/38/1
f 10/39/1 11/41/1 38/42/1 37/40/1
f 11/41/1 12/43/1 39/44/1 38/42/1
f 20/45/1 21/46/1 48/47/1 47/48/1
f 12/43/1 13/49/1 40/50/1 39/44/1
f 21/46/1 22/51/1 49/52/1 48/47/1
f 22/51/1 23/53/1 50/54/1 49/52/1
