# Blender v2.80 (sub 75) OBJ File: ''
# www.blender.org
mtllib fish.mtl
o Cube
v 1.000000 1.000000 -1.000000
v 1.000000 -1.000000 -1.000000
v 1.000000 1.000000 1.000000
v 1.000000 -1.000000 1.000000
v -1.000000 1.000000 -1.000000
v -1.000000 -1.000000 -1.000000
v -1.000000 1.000000 1.000000
v -1.000000 -1.000000 1.000000
v 0.000000 -1.320000 -1.000000
v 0.000000 1.320000 1.000000
v 0.000000 -1.320000 1.000000
v 0.000000 1.320000 -1.000000
v 1.320000 0.000000 -1.000000
v -1.320000 0.000000 1.000000
v 1.320000 0.000000 1.000000
v -1.320000 0.000000 -1.000000
v 0.000000 -0.924000 -2.080000
v -0.700000 -0.700000 -2.080000
v 0.924000 0.000000 -2.080000
v 0.700000 -0.700000 -2.080000
v -0.924000 0.000000 2.080000
v -0.700000 0.700000 2.080000
v 0.924000 0.000000 2.080000
v 0.700000 -0.700000 2.080000
v -0.924000 0.000000 -2.080000
v 0.000000 0.924000 2.080000
v 0.000000 -0.924000 2.080000
v 0.000000 0.924000 -2.080000
v 0.700000 0.700000 -2.080000
v 0.700000 0.700000 2.080000
v -0.700000 -0.700000 2.080000
v -0.700000 0.700000 -2.080000
v 0.000000 -1.227498 -3.377061
v 0.000000 0.000000 2.691450
v 0.000000 -0.382642 -2.865666
v -0.289880 -0.289881 -2.865666
v 0.382642 -0.000000 -2.865666
v 0.289880 -0.289881 -2.865666
v -0.382642 -0.000000 -2.865666
v 0.000000 0.382642 -2.865666
v 0.289880 0.289880 -2.865666
v -0.289880 0.289880 -2.865666
v 0.000000 -1.413720 -3.605960
v -0.576194 -0.929923 -3.377061
v 0.760576 0.000000 -3.377061
v 0.576194 -0.929923 -3.377061
v -0.760576 0.000000 -3.377061
v 0.000000 1.227498 -3.377061
v 0.576194 0.929923 -3.377061
v -0.576194 0.929923 -3.377061
v 0.000000 -1.130976 -3.899901
v -0.663607 -1.071000 -3.605960
v 0.875961 0.000000 -3.605960
v 0.663607 -1.071000 -3.605960
v -0.875961 0.000000 -3.605960
v 0.000000 1.413720 -3.605960
v 0.663607 1.071000 -3.605960
v -0.663607 1.071000 -3.605960
v -0.530886 -0.856800 -3.899901
v 0.700769 0.000000 -3.899901
v 0.530886 -0.856800 -3.899901
v -0.700769 0.000000 -3.899901
v 0.000000 1.130976 -3.899901
v 0.530886 0.856800 -3.899901
v -0.530886 0.856800 -3.899901
v 0.000000 0.000000 -3.899901
vt 0.625000 0.000000
vt 0.500000 0.250000
vt 0.500000 0.000000
vt 0.375000 0.250000
vt 0.375000 0.250000
vt 0.625000 0.500000
vt 0.500000 0.750000
vt 0.500000 0.500000
vt 0.625000 0.750000
vt 0.500000 1.000000
vt 0.500000 0.750000
vt 0.375000 0.500000
vt 0.250000 0.750000
vt 0.250000 0.500000
vt 0.375000 0.500000
vt 0.375000 0.750000
vt 0.375000 0.750000
vt 0.375000 1.000000
vt 0.625000 0.750000
vt 0.375000 0.000000
vt 0.125000 0.750000
vt 0.125000 0.750000
vt 0.625000 0.500000
vt 0.375000 0.000000
vt 0.500000 0.000000
vt 0.125000 0.500000
vt 0.375000 0.500000
vt 0.125000 0.500000
vt 0.250000 0.500000
vt 0.500000 0.375000
vt 0.500000 0.500000
vt 0.500000 0.750000
vt 0.625000 0.750000
vt 0.500000 0.750000
vt 0.500000 0.750000
vt 0.625000 0.750000
vt 0.625000 0.250000
vt 0.500000 0.250000
vt 0.375000 0.250000
vt 0.375000 0.375000
vt 0.125000 0.500000
vt 0.250000 0.500000
vt 0.375000 0.500000
vt 0.375000 0.500000
vt 0.625000 0.250000
vt 0.500000 0.250000
vt 0.375000 1.000000
vt 0.375000 0.750000
vt 0.250000 0.750000
vt 0.625000 0.000000
vt 0.625000 1.000000
vt 0.500000 1.000000
vt 0.625000 0.750000
vt 0.250000 0.500000
vt 0.375000 0.500000
vt 0.500000 0.750000
vt 0.375000 0.750000
vt 0.500000 0.750000
vt 0.375000 0.750000
vt 0.500000 0.750000
vt 0.625000 0.750000
vt 0.625000 0.000000
vt 0.375000 0.000000
vt 0.500000 0.000000
vt 0.500000 0.750000
vt 0.375000 0.750000
vt 0.625000 0.750000
vt 0.625000 0.750000
vt 0.125000 0.500000
vt 0.250000 0.500000
vt 0.625000 0.000000
vt 0.375000 0.000000
vt 0.500000 0.000000
vt 0.125000 0.500000
vt 0.250000 0.500000
vt 0.375000 0.000000
vt 0.500000 0.000000
vt 0.500000 0.000000
vt 0.625000 0.000000
vt 0.625000 0.000000
vt 0.375000 0.500000
vt 0.375000 0.500000
vt 0.500000 0.750000
vt 0.750000 0.625000
vt 0.875000 0.750000
vt 0.750000 0.750000
vt 0.875000 0.500000
vt 0.750000 0.500000
vt 0.625000 0.500000
vt 0.625000 0.625000
vt 0.625000 0.750000
vt 0.625000 0.750000
vt 0.500000 0.750000
vt 0.500000 0.750000
vt 0.375000 0.750000
vt 0.625000 0.250000
vt 0.625000 0.750000
vt 0.625000 1.000000
vt 0.375000 0.750000
vt 0.625000 0.375000
vt 0.625000 0.750000
vt 0.125000 0.500000
vt 0.375000 0.000000
vt 0.875000 0.625000
vn -0.3048 0.9524 0.0000
vn 0.2877 0.8992 0.3297
vn -0.9524 0.3048 0.0000
vn 0.3048 -0.9524 0.0000
vn 0.9524 0.3048 0.0000
vn 0.8992 0.2877 -0.3297
vn -0.8992 -0.2877 -0.3297
vn -0.3048 -0.9524 0.0000
vn 0.2877 -0.8992 -0.3297
vn 0.3048 0.9524 0.0000
vn 0.8992 -0.2877 0.3297
vn -0.8992 0.2877 0.3297
vn 0.2877 0.8992 -0.3297
vn 0.9524 -0.3048 0.0000
vn -0.9524 -0.3048 0.0000
vn 0.8992 -0.2877 -0.3297
vn -0.5434 0.1739 0.8212
vn -0.7963 0.2548 -0.5487
vn 0.2548 -0.7963 -0.5487
vn 0.5434 0.1739 0.8212
vn 0.1739 -0.5434 0.8212
vn 0.7963 -0.2548 -0.5487
vn 0.7963 0.2548 -0.5487
vn -0.1739 -0.5434 0.8212
vn -0.2877 0.8992 0.3297
vn -0.8992 -0.2877 0.3297
vn -0.2877 -0.8992 0.3297
vn 0.8992 0.2877 0.3297
vn -0.2877 0.8992 -0.3297
vn 0.2877 -0.8992 0.3297
vn -0.8992 0.2877 -0.3297
vn -0.2877 -0.8992 -0.3297
vn 0.7687 0.1524 0.6211
vn -0.2584 -0.5002 0.8264
vn -0.7687 -0.1524 0.6211
vn 0.1803 -0.5635 0.8062
vn -0.7963 -0.2548 -0.5487
vn -0.2548 0.7963 -0.5487
vn -0.2548 -0.7963 -0.5487
vn 0.2548 0.7963 -0.5487
vn -0.8793 -0.1743 0.4432
vn 0.3719 -0.7201 0.5858
vn -0.8793 0.1743 0.4432
vn 0.8793 -0.1743 0.4432
vn -0.1803 0.5635 0.8062
vn 0.2584 0.5002 0.8264
vn 0.7788 -0.2492 0.5756
vn -0.7788 0.2492 0.5756
vn 0.8468 -0.1679 -0.5047
vn 0.3488 0.6754 -0.6497
vn -0.3488 0.6754 -0.6497
vn 0.8468 0.1679 -0.5047
vn -0.3719 -0.7201 0.5858
vn 0.8793 0.1743 0.4432
vn -0.3719 0.7201 0.5858
vn 0.3719 0.7201 0.5858
vn 0.0000 0.0000 -1.0000
vn -0.8468 0.1679 -0.5047
vn 0.3488 -0.6754 -0.6497
vn -0.8468 -0.1679 -0.5047
vn -0.3488 -0.6754 -0.6497
vn -0.1739 0.5434 0.8212
vn 0.1739 0.5434 0.8212
vn 0.5434 -0.1739 0.8212
vn -0.5434 -0.1739 0.8212
vn 0.7788 0.2492 0.5756
vn -0.1803 -0.5635 0.8062
vn -0.7788 -0.2492 0.5756
vn 0.2584 -0.5002 0.8264
vn -0.2584 0.5002 0.8264
vn 0.1803 0.5635 0.8062
vn 0.7687 -0.1524 0.6211
vn -0.7687 0.1524 0.6211
usemtl Material
s off
f 5/1/1 10/2/1 12/3/1
f 10/2/2 30/4/2 3/5/2
f 7/6/3 16/7/3 14/8/3
f 2/9/4 11/10/4 9/11/4
f 1/12/5 15/13/5 13/14/5
f 13/14/6 29/15/6 1/12/6
f 16/7/7 18/16/7 6/17/7
f 9/11/8 8/18/8 6/17/8
f 9/11/9 20/19/9 2/9/9
f 12/3/10 3/5/10 1/20/10
f 15/13/11 24/21/11 4/22/11
f 14/8/12 22/23/12 7/6/12
f 12/3/13 29/24/13 28/25/13
f 13/14/14 4/22/14 2/26/14
f 14/8/15 6/17/15 8/27/15
f 13/14/16 20/28/16 19/29/16
f 34/30/17 22/23/17 21/31/17
f 25/32/18 42/33/18 39/34/18
f 17/35/19 38/36/19 20/19/19
f 30/37/20 34/30/20 23/38/20
f 24/39/21 34/30/21 27/40/21
f 19/29/22 38/41/22 37/42/22
f 19/29/23 41/43/23 29/15/23
f 34/30/24 31/44/24 27/40/24
f 10/2/25 22/45/25 26/46/25
f 14/8/26 31/44/26 21/31/26
f 11/10/27 31/47/27 8/18/27
f 15/13/28 30/48/28 23/49/28
f 12/3/29 32/50/29 5/1/29
f 11/10/30 24/51/30 27/52/30
f 16/7/31 32/53/31 25/32/31
f 9/11/32 18/16/32 17/35/32
f 41/43/33 45/54/33 49/55/33
f 35/56/34 44/57/34 33/58/34
f 36/59/35 47/60/35 44/57/35
f 35/56/36 46/61/36 38/36/36
f 25/32/37 36/59/37 18/16/37
f 28/25/38 42/62/38 32/50/38
f 17/35/39 36/59/39 35/56/39
f 28/25/40 41/63/40 40/64/40
f 44/57/41 55/65/41 52/66/41
f 33/58/42 54/67/42 46/61/42
f 50/68/43 55/65/43 47/60/43
f 46/69/44 53/70/44 45/54/44
f 40/64/45 50/71/45 42/62/45
f 40/64/46 49/72/46 48/73/46
f 38/41/47 45/54/47 37/42/47
f 42/33/48 47/60/48 39/34/48
f 53/70/49 61/74/49 60/75/49
f 57/76/50 63/77/50 56/78/50
f 58/79/51 63/77/51 65/80/51
f 53/70/52 64/81/52 57/82/52
f 33/58/53 52/66/53 43/83/53
f 49/55/54 53/70/54 57/82/54
f 48/73/55 58/79/55 50/71/55
f 48/73/56 57/76/56 56/78/56
f 66/84/57 64/85/57 60/86/57
f 65/87/57 66/84/57 62/88/57
f 59/89/57 66/84/57 51/90/57
f 66/84/57 61/91/57 51/90/57
f 55/65/58 65/92/58 62/93/58
f 54/67/59 51/94/59 61/91/59
f 55/65/60 59/95/60 52/66/60
f 52/66/61 51/94/61 43/83/61
f 5/1/1 7/96/1 10/2/1
f 10/2/2 26/46/2 30/4/2
f 7/6/3 5/97/3 16/7/3
f 2/9/4 4/98/4 11/10/4
f 1/12/5 3/99/5 15/13/5
f 13/14/6 19/29/6 29/15/6
f 16/7/7 25/32/7 18/16/7
f 9/11/8 11/10/8 8/18/8
f 9/11/9 17/35/9 20/19/9
f 12/3/10 10/2/10 3/5/10
f 15/13/11 23/49/11 24/21/11
f 14/8/12 21/31/12 22/23/12
f 12/3/13 1/20/13 29/24/13
f 13/14/14 15/13/14 4/22/14
f 14/8/15 16/7/15 6/17/15
f 13/14/16 2/26/16 20/28/16
f 34/30/62 26/100/62 22/23/62
f 25/32/18 32/53/18 42/33/18
f 17/35/19 35/56/19 38/36/19
f 30/37/63 26/100/63 34/30/63
f 24/39/64 23/38/64 34/30/64
f 19/29/22 20/28/22 38/41/22
f 19/29/23 37/42/23 41/43/23
f 34/30/65 21/31/65 31/44/65
f 10/2/25 7/96/25 22/45/25
f 14/8/26 8/27/26 31/44/26
f 11/10/27 27/52/27 31/47/27
f 15/13/28 3/99/28 30/48/28
f 12/3/29 28/25/29 32/50/29
f 11/10/30 4/98/30 24/51/30
f 16/7/31 5/97/31 32/53/31
f 9/11/32 6/17/32 18/16/32
f 41/43/66 37/42/66 45/54/66
f 35/56/67 36/59/67 44/57/67
f 36/59/68 39/34/68 47/60/68
f 35/56/69 33/58/69 46/61/69
f 25/32/37 39/34/37 36/59/37
f 28/25/38 40/64/38 42/62/38
f 17/35/39 18/16/39 36/59/39
f 28/25/40 29/24/40 41/63/40
f 44/57/41 47/60/41 55/65/41
f 33/58/42 43/83/42 54/67/42
f 50/68/43 58/101/43 55/65/43
f 46/69/44 54/102/44 53/70/44
f 40/64/70 48/73/70 50/71/70
f 40/64/71 41/63/71 49/72/71
f 38/41/72 46/69/72 45/54/72
f 42/33/73 50/68/73 47/60/73
f 53/70/49 54/102/49 61/74/49
f 57/76/50 64/103/50 63/77/50
f 58/79/51 56/78/51 63/77/51
f 53/70/52 60/75/52 64/81/52
f 33/58/53 44/57/53 52/66/53
f 49/55/54 45/54/54 53/70/54
f 48/73/55 56/78/55 58/79/55
f 48/73/56 49/72/56 57/76/56
f 66/84/57 63/104/57 64/85/57
f 65/87/57 63/104/57 66/84/57
f 59/89/57 62/88/57 66/84/57
f 66/84/57 60/86/57 61/91/57
f 55/65/58 58/101/58 65/92/58
f 54/67/59 43/83/59 51/94/59
f 55/65/60 62/93/60 59/95/60
f 52/66/61 59/95/61 51/94/61
