# Blender v2.90.0 OBJ File: 'manta.blend'
# www.blender.org
mtllib manta.mtl
o Cube
v -1.000000 1.000000 0.635840
v -1.000000 -1.000000 0.635840
v -1.000000 1.000000 4.487718
v -1.000000 -1.363138 4.487718
v -0.769547 -2.009322 7.905799
v -1.000000 0.035252 9.501564
v -0.435920 -3.344026 12.118658
v -0.435920 -2.471019 12.655823
v -0.261845 -3.614716 14.814348
v -0.261845 -3.038962 14.880816
v 0.001442 0.230079 -0.088210
v -0.228637 0.230079 -0.088210
v -0.138938 -3.443897 16.359940
v -0.138938 -3.139154 16.324759
v -0.228637 -0.230079 -0.088210
v 0.001442 -0.230079 -0.088210
v -0.000733 -2.471019 12.655823
v -0.000733 -3.344026 12.118658
v -0.000733 -3.038962 14.880816
v -0.000733 -3.614716 14.814348
v -0.000733 -3.139154 16.324759
v -0.000733 -3.443897 16.359940
v -2.858272 -0.973327 2.451360
v -2.858272 -1.131623 5.143907
v -2.858272 0.482167 5.143907
v -2.858272 0.482167 2.451360
v -2.858272 -1.771010 7.258043
v -2.210579 -0.219926 7.532274
v -1.803276 -2.032991 9.145754
v -1.803276 -1.717587 9.175779
v -4.454126 -0.978219 4.994474
v -4.454126 -0.978219 5.743611
v -4.454126 -0.120825 6.105762
v -4.454126 -0.120825 4.994474
v -4.454126 -1.543430 6.441394
v -4.454126 -0.534410 7.552283
v -4.255578 -2.029141 7.477526
v -4.255578 -1.416642 7.632501
v -5.460245 -0.952911 6.255818
v -5.460245 -0.952911 6.569471
v -5.460245 -0.709428 6.569471
v -5.460245 -0.709428 6.255818
v -5.460245 -1.279507 6.600066
v -5.460245 -0.826878 6.977741
v -5.369457 -1.251353 7.190848
v -5.369457 -1.077415 7.234589
v -6.216709 -0.970576 6.707754
v -6.216709 -0.970576 6.761976
v -6.216709 -0.727093 6.761976
v -6.216709 -0.727093 6.707754
v -6.216709 -1.065214 6.822961
v -6.216709 -0.844543 6.832554
v -6.125921 -1.269018 6.869394
v -6.125921 -1.095080 6.876955
v -1.813909 -1.890166 7.581921
v -1.295750 -2.742214 10.632206
v -1.929136 -1.144959 4.815812
v -2.539373 -0.986664 1.543600
v -1.929136 0.741083 4.815812
v -1.605289 -0.092337 8.516919
v -2.539373 0.741083 1.543600
v -1.295750 -1.870138 10.915801
v -1.000000 1.000000 0.635840
v -1.000000 -1.000000 0.635840
v -1.441449 -0.356016 0.155847
v -1.441449 0.110436 0.155847
v 1.000000 1.000000 0.635840
v 1.000000 -1.000000 0.635840
v 1.000000 1.000000 4.487718
v 1.000000 -1.363138 4.487718
v 0.769547 -2.009322 7.905799
v 1.000000 0.035252 9.501564
v 0.435920 -3.344026 12.118658
v 0.435920 -2.471019 12.655823
v 0.261845 -3.614716 14.814348
v 0.261845 -3.038962 14.880816
v -0.001442 0.230079 -0.088210
v 0.228637 0.230079 -0.088210
v 0.138938 -3.443897 16.359940
v 0.138938 -3.139154 16.324759
v 0.228637 -0.230079 -0.088210
v -0.001442 -0.230079 -0.088210
v 0.000000 -1.000000 0.635840
v 0.000000 1.000000 4.487718
v 0.000000 -1.363138 4.487718
v 0.000000 1.000000 0.635840
v 0.000000 0.035252 9.501564
v 0.000000 -2.378540 8.497892
v 0.000733 -2.471019 12.655823
v 0.000733 -3.344026 12.118658
v 0.000733 -3.038962 14.880816
v 0.000733 -3.614716 14.814348
v 0.000733 -3.139154 16.324759
v 0.000733 -3.443897 16.359940
v 2.858272 -0.973327 2.451360
v 2.858272 -1.131623 5.143907
v 2.858272 0.482167 5.143907
v 2.858272 0.482167 2.451360
v 2.858272 -1.771010 7.258043
v 2.210579 -0.219926 7.532274
v 1.803276 -2.032991 9.145754
v 1.803276 -1.717587 9.175779
v 4.454126 -0.978219 4.994474
v 4.454126 -0.978219 5.743611
v 4.454126 -0.120825 6.105762
v 4.454126 -0.120825 4.994474
v 4.454126 -1.543430 6.441394
v 4.454126 -0.534410 7.552283
v 4.255578 -2.029141 7.477526
v 4.255578 -1.416642 7.632501
v 5.460245 -0.952911 6.255818
v 5.460245 -0.952911 6.569471
v 5.460245 -0.709428 6.569471
v 5.460245 -0.709428 6.255818
v 5.460245 -1.279507 6.600066
v 5.460245 -0.826878 6.977741
v 5.369457 -1.251353 7.190848
v 5.369457 -1.077415 7.234589
v 6.216709 -0.970576 6.707754
v 6.216709 -0.970576 6.761976
v 6.216709 -0.727093 6.761976
v 6.216709 -0.727093 6.707754
v 6.216709 -1.065214 6.822961
v 6.216709 -0.844543 6.832554
v 6.125921 -1.269018 6.869394
v 6.125921 -1.095080 6.876955
v 1.813909 -1.890166 7.581921
v 1.295750 -2.742214 10.632206
v 1.929136 -1.144959 4.815812
v 2.539373 -0.986664 1.543600
v 1.929136 0.741083 4.815812
v 1.605289 -0.092337 8.516919
v 2.539373 0.741083 1.543600
v 1.295750 -1.870138 10.915801
v 1.000000 1.000000 0.635840
v 1.000000 -1.000000 0.635840
v 1.441449 -0.356016 0.155847
v 1.441449 0.110436 0.155847
vt 0.750000 0.500000
vt 0.875000 0.500000
vt 0.875000 0.750000
vt 0.750000 0.750000
vt 0.875000 0.750000
vt 0.875000 0.750000
vt 0.875000 0.750000
vt 0.875000 0.750000
vt 0.125000 0.500000
vt 0.125000 0.750000
vt 0.125000 0.750000
vt 0.125000 0.500000
vt 0.875000 0.750000
vt 0.750000 0.750000
vt 0.750000 0.750000
vt 0.875000 0.750000
vt 0.875000 0.750000
vt 0.750000 0.750000
vt 0.125000 0.750000
vt 0.125000 0.750000
vt 0.125000 0.750000
vt 0.125000 0.750000
vt 0.625000 0.000000
vt 0.375000 0.000000
vt 0.375000 0.000000
vt 0.625000 0.000000
vt 0.375000 0.875000
vt 0.625000 0.875000
vt 0.625000 1.000000
vt 0.375000 1.000000
vt 0.875000 0.750000
vt 0.750000 0.750000
vt 0.375000 0.000000
vt 0.625000 0.000000
vt 0.125000 0.750000
vt 0.250000 0.750000
vt 0.250000 0.750000
vt 0.125000 0.750000
vt 0.250000 0.750000
vt 0.125000 0.750000
vt 0.125000 0.750000
vt 0.250000 0.750000
vt 0.000000 0.000000
vt 0.000000 0.000000
vt 0.000000 0.000000
vt 0.000000 0.000000
vt 0.250000 0.500000
vt 0.125000 0.500000
vt 0.125000 0.500000
vt 0.250000 0.500000
vt 0.750000 0.500000
vt 0.875000 0.500000
vt 0.125000 0.750000
vt 0.250000 0.750000
vt 0.375000 0.250000
vt 0.625000 0.250000
vt 0.625000 0.250000
vt 0.375000 0.250000
vt 0.625000 0.375000
vt 0.375000 0.375000
vt 0.125000 0.750000
vt 0.125000 0.750000
vt 0.375000 0.000000
vt 0.625000 0.000000
vt 0.625000 0.000000
vt 0.375000 0.000000
vt 0.125000 0.750000
vt 0.875000 0.500000
vt 0.875000 0.500000
vt 0.625000 0.250000
vt 0.375000 0.250000
vt 0.375000 0.250000
vt 0.625000 0.250000
vt 0.875000 0.750000
vt 0.875000 0.750000
vt 0.375000 0.000000
vt 0.625000 0.000000
vt 0.125000 0.750000
vt 0.125000 0.750000
vt 0.125000 0.500000
vt 0.125000 0.750000
vt 0.125000 0.500000
vt 0.625000 0.250000
vt 0.375000 0.250000
vt 0.375000 0.250000
vt 0.625000 0.250000
vt 0.875000 0.500000
vt 0.875000 0.750000
vt 0.875000 0.750000
vt 0.875000 0.750000
vt 0.375000 0.250000
vt 0.625000 0.250000
vt 0.875000 0.750000
vt 0.875000 0.750000
vt 0.875000 0.750000
vt 0.875000 0.750000
vt 0.875000 0.750000
vt 0.875000 0.750000
vt 0.625000 0.000000
vt 0.375000 0.000000
vt 0.875000 0.500000
vt 0.625000 0.000000
vt 0.375000 0.000000
vt 0.375000 0.000000
vt 0.625000 0.000000
vt 0.375000 0.000000
vt 0.625000 0.000000
vt 0.125000 0.750000
vt 0.125000 0.500000
vt 0.125000 0.750000
vt 0.125000 0.750000
vt 0.875000 0.500000
vt 0.625000 0.250000
vt 0.375000 0.250000
vt 0.625000 0.250000
vt 0.375000 0.250000
vt 0.875000 0.500000
vt 0.875000 0.500000
vt 0.125000 0.500000
vt 0.125000 0.500000
vt 0.875000 0.750000
vt 0.875000 0.500000
vt 0.875000 0.750000
vt 0.875000 0.750000
vt 0.875000 0.750000
vt 0.875000 0.750000
vt 0.125000 0.500000
vt 0.125000 0.500000
vt 0.125000 0.750000
vt 0.125000 0.750000
vt 0.875000 0.750000
vt 0.750000 0.750000
vt 0.750000 0.750000
vt 0.875000 0.750000
vt 0.875000 0.750000
vt 0.125000 0.750000
vt 0.125000 0.750000
vt 0.125000 0.750000
vt 0.125000 0.750000
vt 0.625000 0.000000
vt 0.625000 0.000000
vt 0.375000 0.000000
vt 0.375000 0.000000
vt 0.375000 0.875000
vt 0.375000 1.000000
vt 0.625000 1.000000
vt 0.625000 0.875000
vt 0.750000 0.750000
vt 0.875000 0.750000
vt 0.625000 0.000000
vt 0.375000 0.000000
vt 0.125000 0.750000
vt 0.125000 0.750000
vt 0.250000 0.750000
vt 0.250000 0.750000
vt 0.125000 0.750000
vt 0.250000 0.750000
vt 0.125000 0.750000
vt 0.000000 0.000000
vt 0.000000 0.000000
vt 0.250000 0.500000
vt 0.125000 0.500000
vt 0.125000 0.500000
vt 0.875000 0.500000
vt 0.750000 0.500000
vt 0.125000 0.750000
vt 0.375000 0.250000
vt 0.375000 0.250000
vt 0.625000 0.250000
vt 0.625000 0.250000
vt 0.375000 0.375000
vt 0.625000 0.375000
vt 0.125000 0.750000
vt 0.125000 0.750000
vt 0.375000 0.000000
vt 0.375000 0.000000
vt 0.625000 0.000000
vt 0.625000 0.000000
vt 0.125000 0.750000
vt 0.875000 0.500000
vt 0.875000 0.500000
vt 0.625000 0.250000
vt 0.625000 0.250000
vt 0.375000 0.250000
vt 0.375000 0.250000
vt 0.875000 0.750000
vt 0.875000 0.750000
vt 0.375000 0.000000
vt 0.625000 0.000000
vt 0.125000 0.750000
vt 0.125000 0.750000
vt 0.125000 0.500000
vt 0.125000 0.500000
vt 0.125000 0.750000
vt 0.625000 0.250000
vt 0.625000 0.250000
vt 0.375000 0.250000
vt 0.375000 0.250000
vt 0.875000 0.750000
vt 0.875000 0.500000
vt 0.875000 0.750000
vt 0.875000 0.750000
vt 0.625000 0.250000
vt 0.375000 0.250000
vt 0.875000 0.750000
vt 0.875000 0.750000
vt 0.875000 0.750000
vt 0.875000 0.750000
vt 0.875000 0.750000
vt 0.875000 0.750000
vt 0.375000 0.000000
vt 0.625000 0.000000
vt 0.875000 0.500000
vt 0.625000 0.000000
vt 0.625000 0.000000
vt 0.375000 0.000000
vt 0.375000 0.000000
vt 0.625000 0.000000
vt 0.375000 0.000000
vt 0.125000 0.500000
vt 0.125000 0.750000
vt 0.125000 0.750000
vt 0.125000 0.750000
vt 0.875000 0.500000
vt 0.375000 0.250000
vt 0.625000 0.250000
vt 0.625000 0.250000
vt 0.375000 0.250000
vt 0.875000 0.500000
vt 0.875000 0.500000
vt 0.125000 0.500000
vt 0.125000 0.500000
vn 0.0000 1.0000 0.0000
vn -0.3457 0.8953 0.2809
vn -0.0669 -0.9967 -0.0461
vn 0.0000 0.9820 0.1890
vn 0.0000 0.9689 0.2473
vn 0.0000 0.7829 0.6221
vn -0.3942 -0.9154 -0.0809
vn -0.9974 -0.0275 0.0659
vn 0.0000 0.1147 0.9934
vn 0.0000 0.9976 0.0692
vn -0.9966 -0.0029 0.0820
vn 0.0000 -0.9950 -0.0999
vn 0.0000 -0.9939 0.1099
vn -0.1572 -0.9493 -0.2721
vn 1.0000 0.0000 0.0020
vn 0.0000 -0.6851 -0.7285
vn 0.0000 0.6851 -0.7285
vn -0.1309 -0.9683 -0.2125
vn -0.6844 0.0000 -0.7291
vn 0.0000 -0.9956 -0.0939
vn 0.0000 0.0000 -1.0000
vn -0.0827 -0.9161 -0.3924
vn -0.5475 -0.1636 0.8206
vn 0.1282 -0.9463 -0.2969
vn -0.3523 0.9352 0.0360
vn -0.9435 0.0000 -0.3314
vn -0.8936 0.2578 0.3673
vn -0.9568 -0.0743 0.2812
vn -0.0651 -0.9604 -0.2709
vn -0.4258 -0.8879 -0.1740
vn -0.0251 -0.9997 0.0000
vn -0.7818 0.0000 -0.6236
vn -0.3535 0.9355 0.0000
vn -0.2648 0.5205 0.8117
vn -0.1487 0.9425 0.2993
vn -0.8470 0.0000 -0.5315
vn -0.0913 -0.9948 -0.0458
vn -0.5129 0.0000 -0.8585
vn -0.0072 0.8978 0.4404
vn -0.2961 0.4110 0.8622
vn -0.3878 -0.2258 0.8936
vn -0.4253 -0.5725 -0.7010
vn -0.5050 0.8631 0.0000
vn -0.4084 0.1629 0.8981
vn -0.3997 0.8812 0.2523
vn -1.0000 0.0000 0.0000
vn -0.5198 -0.0371 0.8535
vn 0.0233 -0.9997 0.0000
vn -0.1102 -0.9658 -0.2348
vn -0.4032 -0.1335 0.9053
vn -0.2837 -0.2037 -0.9370
vn -0.0233 0.9997 0.0000
vn -0.1652 -0.9641 -0.2077
vn -0.8940 -0.1907 0.4054
vn -0.7402 0.4710 0.4798
vn -0.7842 0.0000 -0.6205
vn -0.1972 0.9802 0.0169
vn -0.0994 -0.9560 -0.2762
vn -0.1239 -0.9904 -0.0619
vn -0.3199 0.9255 0.2028
vn 0.7360 0.0000 -0.6769
vn 0.0000 0.0000 1.0000
vn -0.4817 0.5891 -0.6488
vn -0.3652 -0.7042 -0.6089
vn 0.3457 0.8953 0.2809
vn 0.0669 -0.9967 -0.0461
vn 0.3942 -0.9154 -0.0809
vn 0.9974 -0.0275 0.0659
vn 0.9966 -0.0029 0.0820
vn 0.1572 -0.9493 -0.2721
vn -1.0000 0.0000 0.0020
vn 0.1309 -0.9683 -0.2125
vn 0.6844 0.0000 -0.7291
vn 0.0827 -0.9161 -0.3924
vn 0.5475 -0.1636 0.8206
vn -0.1282 -0.9463 -0.2969
vn 0.3523 0.9352 0.0360
vn 0.9435 0.0000 -0.3314
vn 0.8936 0.2578 0.3673
vn 0.9568 -0.0743 0.2812
vn 0.0651 -0.9604 -0.2709
vn 0.4258 -0.8879 -0.1740
vn 0.0251 -0.9997 0.0000
vn 0.7818 0.0000 -0.6236
vn 0.3535 0.9355 0.0000
vn 0.2648 0.5205 0.8117
vn 0.1487 0.9425 0.2993
vn 0.8470 0.0000 -0.5315
vn 0.0913 -0.9948 -0.0458
vn 0.5129 0.0000 -0.8585
vn 0.0072 0.8978 0.4404
vn 0.2961 0.4110 0.8622
vn 0.3878 -0.2258 0.8936
vn 0.4253 -0.5725 -0.7010
vn 0.5050 0.8631 0.0000
vn 0.4084 0.1629 0.8981
vn 0.3997 0.8812 0.2523
vn 1.0000 0.0000 0.0000
vn 0.5198 -0.0371 0.8535
vn -0.0233 -0.9997 0.0000
vn 0.1102 -0.9658 -0.2348
vn 0.4032 -0.1335 0.9053
vn 0.2837 -0.2037 -0.9370
vn 0.0233 0.9997 0.0000
vn 0.1652 -0.9641 -0.2077
vn 0.8940 -0.1907 0.4054
vn 0.7402 0.4710 0.4798
vn 0.7842 0.0000 -0.6205
vn 0.1972 0.9802 0.0169
vn 0.0994 -0.9560 -0.2762
vn 0.1239 -0.9904 -0.0619
vn 0.3199 0.9255 0.2028
vn -0.7360 0.0000 -0.6769
vn 0.4817 0.5891 -0.6488
vn 0.3652 -0.7042 -0.6089
usemtl Material
s off
f 86/1/1 1/2/1 3/3/1 84/4/1
f 60/5/2 59/6/2 25/7/2 28/8/2
f 58/9/3 57/10/3 24/11/3 23/12/3
f 84/4/4 3/3/4 6/13/4 87/14/4
f 17/15/5 8/16/5 10/17/5 19/18/5
f 87/14/6 6/13/6 8/16/6 17/15/6
f 55/19/7 56/20/7 29/21/7 27/22/7
f 8/23/8 7/24/8 9/25/8 10/26/8
f 22/27/9 21/28/9 14/29/9 13/30/9
f 19/18/10 10/17/10 14/31/10 21/32/10
f 10/26/11 9/25/11 13/33/11 14/34/11
f 7/35/12 18/36/12 20/37/12 9/38/12
f 9/38/13 20/37/13 22/39/13 13/40/13
f 5/41/14 88/42/14 18/36/14 7/35/14
f 86/43/15 83/44/15 16/45/15 11/46/15
f 83/47/16 2/48/16 15/49/16 16/50/16
f 1/2/17 86/1/17 11/51/17 12/52/17
f 4/53/18 85/54/18 88/42/18 5/41/18
f 2/55/19 1/56/19 12/57/19 15/58/19
f 2/48/20 83/47/20 85/54/20 4/53/20
f 15/58/21 12/57/21 11/59/21 16/60/21
f 24/11/22 27/22/22 35/61/22 32/62/22
f 29/63/23 30/64/23 38/65/23 37/66/23
f 27/22/24 29/21/24 37/67/24 35/61/24
f 59/6/25 61/68/25 26/69/25 25/7/25
f 61/70/26 58/71/26 23/72/26 26/73/26
f 62/74/27 60/5/27 28/8/27 30/75/27
f 56/76/28 62/77/28 30/64/28 29/63/28
f 57/10/29 55/19/29 27/22/29 24/11/29
f 35/61/30 37/67/30 45/78/30 43/79/30
f 31/80/31 32/62/31 40/81/31 39/82/31
f 34/83/32 31/84/32 39/85/32 42/86/32
f 25/7/33 26/69/33 34/87/33 33/88/33
f 30/75/34 28/8/34 36/89/34 38/90/34
f 28/8/35 25/7/35 33/88/35 36/89/35
f 26/73/36 23/72/36 31/84/36 34/83/36
f 23/12/37 24/11/37 32/62/37 31/80/37
f 42/86/38 39/85/38 47/91/38 50/92/38
f 44/93/39 41/94/39 49/95/39 52/96/39
f 46/97/40 44/93/40 52/96/40 54/98/40
f 37/66/41 38/65/41 46/99/41 45/100/41
f 32/62/42 35/61/42 43/79/42 40/81/42
f 33/88/43 34/87/43 42/101/43 41/94/43
f 38/90/44 36/89/44 44/93/44 46/97/44
f 36/89/45 33/88/45 41/94/45 44/93/45
f 49/102/46 48/103/46 51/104/46 52/105/46
f 48/103/46 49/102/46 50/92/46 47/91/46
f 52/105/47 51/104/47 53/106/47 54/107/47
f 39/82/48 40/81/48 48/108/48 47/109/48
f 43/79/49 45/78/49 53/110/49 51/111/49
f 45/100/50 46/99/50 54/107/50 53/106/50
f 40/81/51 43/79/51 51/111/51 48/108/51
f 41/94/52 42/101/52 50/112/52 49/95/52
f 4/53/53 5/41/53 55/19/53 57/10/53
f 7/24/54 8/23/54 62/77/54 56/76/54
f 8/16/55 6/13/55 60/5/55 62/74/55
f 58/71/56 61/70/56 66/113/56 65/114/56
f 3/3/57 1/2/57 61/68/57 59/6/57
f 5/41/58 7/35/58 56/20/58 55/19/58
f 2/48/59 4/53/59 57/10/59 58/9/59
f 6/13/60 3/3/60 59/6/60 60/5/60
f 63/115/61 64/116/61 65/114/61 66/113/61
f 1/56/62 2/55/62 64/116/62 63/115/62
f 61/68/63 1/2/63 63/117/63 66/118/63
f 2/48/64 58/9/64 65/119/64 64/120/64
f 86/1/1 84/4/1 69/121/1 67/122/1
f 132/123/65 100/124/65 97/125/65 131/126/65
f 130/127/66 95/128/66 96/129/66 129/130/66
f 84/4/4 87/14/4 72/131/4 69/121/4
f 89/132/5 91/133/5 76/134/5 74/135/5
f 87/14/6 89/132/6 74/135/6 72/131/6
f 127/136/67 99/137/67 101/138/67 128/139/67
f 74/140/68 76/141/68 75/142/68 73/143/68
f 94/144/9 79/145/9 80/146/9 93/147/9
f 91/133/10 93/148/10 80/149/10 76/134/10
f 76/141/69 80/150/69 79/151/69 75/142/69
f 73/152/12 75/153/12 92/154/12 90/155/12
f 75/153/13 79/156/13 94/157/13 92/154/13
f 71/158/70 73/152/70 90/155/70 88/42/70
f 86/43/71 77/159/71 82/160/71 83/44/71
f 83/47/16 82/161/16 81/162/16 68/163/16
f 67/122/17 78/164/17 77/165/17 86/1/17
f 70/166/72 71/158/72 88/42/72 85/54/72
f 68/167/73 81/168/73 78/169/73 67/170/73
f 68/163/20 70/166/20 85/54/20 83/47/20
f 81/168/21 82/171/21 77/172/21 78/169/21
f 96/129/74 104/173/74 107/174/74 99/137/74
f 101/175/75 109/176/75 110/177/75 102/178/75
f 99/137/76 107/174/76 109/179/76 101/138/76
f 131/126/77 97/125/77 98/180/77 133/181/77
f 133/182/78 98/183/78 95/184/78 130/185/78
f 134/186/79 102/187/79 100/124/79 132/123/79
f 128/188/80 101/175/80 102/178/80 134/189/80
f 129/130/81 96/129/81 99/137/81 127/136/81
f 107/174/82 115/190/82 117/191/82 109/179/82
f 103/192/83 111/193/83 112/194/83 104/173/83
f 106/195/84 114/196/84 111/197/84 103/198/84
f 97/125/85 105/199/85 106/200/85 98/180/85
f 102/187/86 110/201/86 108/202/86 100/124/86
f 100/124/87 108/202/87 105/199/87 97/125/87
f 98/183/88 106/195/88 103/198/88 95/184/88
f 95/128/89 103/192/89 104/173/89 96/129/89
f 114/196/90 122/203/90 119/204/90 111/197/90
f 116/205/91 124/206/91 121/207/91 113/208/91
f 118/209/92 126/210/92 124/206/92 116/205/92
f 109/176/93 117/211/93 118/212/93 110/177/93
f 104/173/94 112/194/94 115/190/94 107/174/94
f 105/199/95 113/208/95 114/213/95 106/200/95
f 110/201/96 118/209/96 116/205/96 108/202/96
f 108/202/97 116/205/97 113/208/97 105/199/97
f 121/214/98 124/215/98 123/216/98 120/217/98
f 120/217/98 119/204/98 122/203/98 121/214/98
f 124/215/99 126/218/99 125/219/99 123/216/99
f 111/193/100 119/220/100 120/221/100 112/194/100
f 115/190/101 123/222/101 125/223/101 117/191/101
f 117/211/102 125/219/102 126/218/102 118/212/102
f 112/194/103 120/221/103 123/222/103 115/190/103
f 113/208/104 121/207/104 122/224/104 114/213/104
f 70/166/105 129/130/105 127/136/105 71/158/105
f 73/143/106 128/188/106 134/189/106 74/140/106
f 74/135/107 134/186/107 132/123/107 72/131/107
f 130/185/108 137/225/108 138/226/108 133/182/108
f 69/121/109 131/126/109 133/181/109 67/122/109
f 71/158/110 127/136/110 128/139/110 73/152/110
f 68/163/111 130/127/111 129/130/111 70/166/111
f 72/131/112 132/123/112 131/126/112 69/121/112
f 135/227/113 138/226/113 137/225/113 136/228/113
f 67/170/62 135/227/62 136/228/62 68/167/62
f 133/181/114 138/229/114 135/230/114 67/122/114
f 68/163/115 136/231/115 137/232/115 130/127/115
