# Blender v2.82 (sub 7) OBJ File: 'bird.blend'
# www.blender.org
mtllib bird.mtl
o Icosphere
v 0.008836 -0.536927 -0.052428
v -0.779644 -0.105037 1.068445
v -0.222132 0.095356 -0.615743
v 0.613531 0.024846 -0.355208
v -0.596799 0.749386 -0.163353
v 0.239814 0.819755 -0.423577
v -0.568535 -0.599999 0.642885
v 0.152522 0.040675 1.143210
v 0.284734 -0.353024 0.829433
v 0.364265 -0.348917 -0.268117
v -0.489004 -0.579840 -0.064806
v -0.126923 -0.307472 -0.421255
v -0.682694 -0.125097 -0.530691
v 0.228507 0.022730 -0.599226
v 0.933543 0.438858 -0.082285
v -0.520902 0.484954 -0.572688
v -1.092810 0.447767 -0.197360
v 0.500030 0.448517 -0.486275
v 0.008836 0.489962 -0.639412
v -0.207726 -0.304558 0.984756
v -0.210835 0.874301 -0.373316
v 0.661933 0.858976 -0.108891
v -0.695075 0.749707 0.648697
v 0.160274 0.824358 0.893591
v -0.310066 0.113368 1.173392
v 0.534001 0.026490 0.887209
v -0.070694 -0.557553 0.629020
v 0.889739 0.501637 0.537235
v -0.070694 0.512702 1.134392
v 0.420499 0.459245 0.984949
v -0.974218 0.369295 0.635700
v -0.592241 0.483960 1.034247
v 0.547693 0.831887 0.633817
v -0.290365 0.874760 0.839250
vt 0.272727 0.000000
vt 0.227273 0.078731
vt 0.318182 0.078731
vt 0.454545 0.000000
vt 0.409090 0.078731
vt 0.500000 0.078731
vt 0.363636 0.157461
vt 0.272727 0.157461
vt 0.318182 0.236191
vt 0.545454 0.157461
vt 0.454545 0.157461
vt 0.500000 0.236191
vt 0.409090 0.236191
vt 0.590909 0.236191
vt 0.772726 0.078731
vt 0.727272 0.157461
vt 0.818181 0.157461
vt 0.863635 0.078731
vt 0.909090 0.157461
vt 0.045454 0.078731
vt 0.000000 0.157461
vt 0.090909 0.157461
vt 0.136363 0.078731
vt 0.772726 0.236191
vt 0.863635 0.236191
vt 0.818181 0.314921
vt 0.545454 0.314921
vt 0.454545 0.314921
vt 0.363636 0.314921
vt 0.272727 0.314921
vt 0.045454 0.236191
vt 0.136363 0.236191
vt 0.090909 0.314921
vt 0.681818 0.236191
vt 0.727272 0.314921
vt 0.227273 0.236191
vt 0.909091 0.314921
vt 0.954545 0.236191
vt 1.000000 0.314921
vt 0.090909 0.000000
vt 0.818181 0.000000
vn 0.0853 -0.8316 -0.5488
vn 0.1024 -0.8273 -0.5524
vn -0.1712 -0.0224 -0.9850
vn 0.5321 -0.1169 -0.8386
vn -0.1251 0.0137 -0.9921
vn 0.6806 -0.0439 -0.7314
vn 0.4900 -0.4367 0.7544
vn 0.1955 -0.5702 0.7979
vn -0.0054 -0.4125 0.9109
vn -0.0111 -0.4136 0.9104
vn -0.1306 -0.6778 0.7236
vn 0.5557 -0.0418 0.8303
vn 0.3033 0.1610 0.9392
vn 0.3053 0.4302 0.8496
vn 0.6379 0.3696 -0.6757
vn 0.4983 0.4721 -0.7272
vn -0.0247 0.5595 -0.8285
vn -0.1115 0.5218 -0.8457
vn -0.5085 0.6772 -0.5318
vn -0.2791 0.1439 0.9494
vn -0.7328 0.2694 0.6248
vn -0.6949 0.4920 0.5245
vn 0.6033 0.4281 0.6729
vn 0.3051 0.3626 -0.8806
vn 0.3017 0.0600 -0.9515
vn 0.0246 -0.0742 -0.9969
vn -0.4070 0.7310 -0.5477
vn -0.5505 0.0889 -0.8301
vn 0.4706 0.5147 0.7167
vn -0.0247 0.6226 0.7821
vn -0.1866 0.5502 0.8139
vn -0.4773 0.6588 0.5814
vn 0.4700 -0.4852 -0.7373
vn 0.1871 -0.6145 -0.7664
vn -0.0384 -0.4418 -0.8963
vn 0.0377 -0.4272 -0.9034
vn -0.1086 -0.7336 -0.6709
vn -0.1955 0.2107 0.9578
vn 0.6894 0.0173 0.7242
vn 0.0734 0.0533 0.9959
vn 0.0846 -0.7963 0.5989
vn 0.1130 -0.7886 0.6044
usemtl wings
s off
f 1/1/1 11/2/1 12/3/1
f 1/4/2 12/5/2 10/6/2
f 3/7/3 13/8/3 16/9/3
f 4/10/4 14/11/4 18/12/4
f 3/7/5 16/9/5 19/13/5
f 4/10/6 18/12/6 15/14/6
f 9/15/7 26/16/7 8/17/7
f 20/18/8 9/15/8 8/17/8
f 20/18/9 8/17/9 25/19/9
f 20/20/10 25/21/10 2/22/10
f 7/23/11 20/20/11 2/22/11
f 8/17/12 26/16/12 30/24/12
f 29/25/13 8/17/13 30/24/13
f 29/25/14 30/24/14 24/26/14
f 15/14/15 18/12/15 22/27/15
f 18/12/16 6/28/16 22/27/16
f 19/13/17 21/29/17 6/28/17
f 19/13/18 16/9/18 21/29/18
f 16/9/19 5/30/19 21/29/19
f 2/22/20 25/21/20 32/31/20
f 31/32/21 2/22/21 32/31/21
f 31/32/22 32/31/22 23/33/22
f 30/24/23 28/34/23 33/35/23
f 18/12/24 19/13/24 6/28/24
f 18/12/25 14/11/25 19/13/25
f 14/11/26 3/7/26 19/13/26
f 16/9/27 17/36/27 5/30/27
f 16/9/28 13/8/28 17/36/28
f 30/24/29 33/35/29 24/26/29
f 29/25/30 24/26/30 34/37/30
f 32/38/31 29/25/31 34/37/31
f 32/38/32 34/37/32 23/39/32
f 10/6/33 14/11/33 4/10/33
f 10/6/34 12/5/34 14/11/34
f 12/5/35 3/7/35 14/11/35
f 12/3/36 13/8/36 3/7/36
f 12/3/37 11/2/37 13/8/37
f 25/19/38 29/25/38 32/38/38
f 26/16/39 28/34/39 30/24/39
f 25/19/40 8/17/40 29/25/40
f 27/40/41 20/20/41 7/23/41
f 27/41/42 9/15/42 20/18/42
o Icosphere.001_Icosphere.002
v 0.000000 -0.399758 0.251436
v 0.723607 0.063722 0.687852
v -0.286443 0.049119 0.986331
v -1.680700 -0.276999 0.276424
v -0.276388 0.063721 -0.454705
v 0.723607 0.063722 -0.184979
v 0.276388 0.813665 0.957578
v -0.747164 0.825871 0.702059
v -0.724732 0.813728 -0.185323
v 0.276399 0.813673 -0.454712
v 1.295380 1.754865 0.326463
v 0.000000 1.277144 0.251436
v -0.163979 -0.281226 0.670384
v 0.425323 -0.274539 0.507953
v 0.267112 -0.009227 0.933854
v 0.850648 -0.002111 0.251436
v 0.425323 -0.274539 -0.005080
v -0.595740 -0.444444 0.250477
v -0.848363 -0.121370 0.815217
v -0.162456 -0.274539 -0.163620
v -0.827519 -0.126987 -0.316060
v 0.262869 -0.002112 -0.420140
v 1.149301 0.629616 0.515000
v 1.106549 0.534973 -0.027445
v 0.000000 0.438693 1.081557
v 0.587786 0.438693 0.923018
v -1.081199 0.471665 0.564075
v -0.624108 0.445367 0.977657
v -0.633911 0.451299 -0.512950
v -1.318283 0.513496 -0.140882
v 0.587786 0.438693 -0.420145
v 0.000000 0.438693 -0.578684
v 0.739992 0.908354 0.715195
v -0.262869 0.879498 0.923013
v -0.951506 0.959816 0.254103
v -0.262869 0.879498 -0.420140
v 0.781526 0.933821 -0.160799
v 0.166616 1.170192 0.677123
v 0.598026 1.416003 0.282036
v -0.444063 1.183352 0.519256
v -0.452014 1.196686 -0.021178
v 0.162456 1.151925 -0.163620
vt 0.818181 0.000000
vt 0.772726 0.078731
vt 0.863635 0.078731
vt 0.727272 0.157461
vt 0.681818 0.078731
vt 0.636363 0.157461
vt 0.090909 0.000000
vt 0.045454 0.078731
vt 0.136363 0.078731
vt 0.272727 0.000000
vt 0.227273 0.078731
vt 0.318182 0.078731
vt 0.454545 0.000000
vt 0.409090 0.078731
vt 0.500000 0.078731
vt 0.681818 0.236191
vt 0.909090 0.157461
vt 0.818181 0.157461
vt 0.863635 0.236191
vt 0.181818 0.157461
vt 0.090909 0.157461
vt 0.136363 0.236191
vt 0.363636 0.157461
vt 0.272727 0.157461
vt 0.318182 0.236191
vt 0.545454 0.157461
vt 0.454545 0.157461
vt 0.500000 0.236191
vt 0.772726 0.236191
vt 0.954545 0.236191
vt 0.227273 0.236191
vt 0.409090 0.236191
vt 0.590909 0.236191
vt 0.818181 0.314921
vt 0.727272 0.314921
vt 0.772726 0.393651
vt 1.000000 0.314921
vt 0.909091 0.314921
vt 0.954545 0.393651
vt 0.272727 0.314921
vt 0.181818 0.314921
vt 0.227273 0.393651
vt 0.454545 0.314921
vt 0.363636 0.314921
vt 0.409090 0.393651
vt 0.636363 0.314921
vt 0.545454 0.314921
vt 0.590909 0.393651
vt 0.500000 0.393651
vt 0.545454 0.472382
vt 0.318182 0.393651
vt 0.363636 0.472382
vt 0.136363 0.393651
vt 0.181818 0.472382
vt 0.090909 0.314921
vt 0.863635 0.393651
vt 0.909090 0.472382
vt 0.681818 0.393651
vt 0.727272 0.472382
vt 0.045454 0.236191
vt 0.000000 0.157461
vt 0.590909 0.078731
vt 0.636363 0.000000
vn 0.0949 -0.9475 0.3052
vn 0.6346 -0.7153 0.2926
vn 0.0709 -0.9522 0.2972
vn 0.0715 -0.9468 -0.3137
vn 0.0859 -0.9440 -0.3184
vn 0.8028 -0.5091 0.3105
vn 0.0614 -0.2794 0.9582
vn -0.5558 0.1295 0.8212
vn -0.1438 -0.2755 -0.9505
vn 0.4654 -0.3431 -0.8159
vn 0.6228 -0.2412 0.7443
vn -0.1643 -0.1186 0.9793
vn -0.7976 0.5237 0.2993
vn -0.1048 -0.2417 -0.9647
vn 0.6135 -0.2480 -0.7497
vn 0.2465 0.6449 0.7234
vn -0.3730 0.6532 0.6590
vn -0.5817 0.6331 -0.5107
vn 0.0321 0.6581 -0.7522
vn -0.2450 0.6036 -0.7587
vn -0.1945 0.9154 -0.3523
vn 0.2513 0.7049 -0.6633
vn 0.2422 0.6785 -0.6936
vn 0.0031 0.9577 -0.2877
vn -0.0948 0.7569 -0.6467
vn -0.4296 0.5965 -0.6779
vn -0.1910 0.9812 0.0270
vn -0.4154 0.9092 0.0285
vn -0.5479 0.6993 0.4591
vn -0.0466 0.9643 0.2605
vn -0.1482 0.7571 0.6363
vn 0.0259 0.6230 0.7818
vn -0.2298 0.9189 0.3208
vn 0.2586 0.6678 0.6979
vn -0.3213 0.5611 0.7629
vn 0.5346 0.1581 -0.8302
vn 0.5685 0.1961 -0.7990
vn 0.4322 0.2799 -0.8572
vn -0.0206 0.3275 -0.9446
vn -0.0931 0.2873 -0.9533
vn -0.4416 0.5382 -0.7178
vn -0.4252 0.7702 -0.4755
vn -0.8507 0.4236 0.3112
vn -0.7241 0.4964 0.4788
vn -0.4122 0.4432 0.7960
vn -0.1564 0.2504 0.9554
vn -0.0206 0.3275 0.9446
vn 0.4062 0.2565 0.8771
vn 0.5335 0.1917 0.8238
vn 0.4831 0.0833 0.8716
vn 0.2583 0.1262 -0.9578
vn 0.2557 -0.1885 -0.9482
vn 0.0206 -0.3275 -0.9446
vn -0.3481 0.5791 -0.7372
vn -0.4827 -0.1331 -0.8656
vn -0.5379 -0.1873 -0.8220
vn -0.6271 0.3136 0.7130
vn -0.6684 0.0518 0.7420
vn -0.2361 -0.1803 0.9549
vn 0.2583 0.1263 0.9578
vn 0.2570 -0.1610 0.9529
vn 0.4881 -0.3299 0.8080
vn 0.9890 -0.1374 -0.0540
vn 0.9035 -0.4286 0.0036
vn 0.7860 -0.5352 -0.3095
vn 0.4074 -0.6822 -0.6072
vn 0.1576 -0.7961 -0.5842
vn -0.0321 -0.6581 -0.7522
vn 0.0316 -0.6458 -0.7628
vn -0.0912 -0.8842 -0.4582
vn -0.1474 -0.8873 -0.4369
vn -0.1257 -0.8843 0.4497
vn -0.1097 -0.8831 0.4561
vn -0.0093 -0.6929 0.7209
vn 0.6346 -0.7153 -0.2926
vn 0.5394 -0.8421 0.0000
vn 0.2824 -0.9593 0.0000
vn -0.0045 -0.6920 0.7218
vn 0.1649 -0.8085 0.5649
vn 0.4263 -0.6882 0.5871
usemtl bird
s off
f 35/42/43 48/43/43 47/44/43
f 36/45/44 48/46/44 50/47/44
f 35/48/45 47/49/45 52/50/45
f 35/51/46 52/52/46 54/53/46
f 35/54/47 54/55/47 51/56/47
f 36/45/48 50/47/48 57/57/48
f 37/58/49 49/59/49 59/60/49
f 38/61/50 53/62/50 61/63/50
f 39/64/51 55/65/51 63/66/51
f 40/67/52 56/68/52 65/69/52
f 36/45/53 57/57/53 60/70/53
f 37/58/54 59/60/54 62/71/54
f 38/61/55 61/63/55 64/72/55
f 39/64/56 63/66/56 66/73/56
f 40/67/57 65/69/57 58/74/57
f 41/75/58 67/76/58 72/77/58
f 42/78/59 68/79/59 74/80/59
f 43/81/60 69/82/60 75/83/60
f 44/84/61 70/85/61 76/86/61
f 45/87/62 71/88/62 73/89/62
f 73/89/63 76/90/63 46/91/63
f 73/89/64 71/88/64 76/90/64
f 71/88/65 44/84/65 76/90/65
f 76/86/66 75/92/66 46/93/66
f 76/86/67 70/85/67 75/92/67
f 70/85/68 43/81/68 75/92/68
f 75/83/69 74/94/69 46/95/69
f 75/83/70 69/82/70 74/94/70
f 69/82/71 42/96/71 74/94/71
f 74/80/72 72/97/72 46/98/72
f 74/80/73 68/79/73 72/97/73
f 68/79/74 41/75/74 72/97/74
f 72/77/75 73/99/75 46/100/75
f 72/77/76 67/76/76 73/99/76
f 67/76/77 45/87/77 73/99/77
f 58/74/78 71/88/78 45/87/78
f 58/74/79 65/69/79 71/88/79
f 65/69/80 44/84/80 71/88/80
f 66/73/81 70/85/81 44/84/81
f 66/73/82 63/66/82 70/85/82
f 63/66/83 43/81/83 70/85/83
f 64/72/84 69/82/84 43/81/84
f 64/72/85 61/63/85 69/82/85
f 61/63/86 42/96/86 69/82/86
f 62/71/87 68/79/87 42/78/87
f 62/71/88 59/60/88 68/79/88
f 59/60/89 41/75/89 68/79/89
f 60/70/90 67/76/90 41/75/90
f 60/70/91 57/57/91 67/76/91
f 57/57/92 45/87/92 67/76/92
f 65/69/93 66/73/93 44/84/93
f 65/69/94 56/68/94 66/73/94
f 56/68/95 39/64/95 66/73/95
f 63/66/96 64/72/96 43/81/96
f 63/66/97 55/65/97 64/72/97
f 55/65/98 38/61/98 64/72/98
f 61/63/99 62/101/99 42/96/99
f 61/63/100 53/62/100 62/101/100
f 53/62/101 37/102/101 62/101/101
f 59/60/102 60/70/102 41/75/102
f 59/60/103 49/59/103 60/70/103
f 49/59/104 36/45/104 60/70/104
f 57/57/105 58/74/105 45/87/105
f 57/57/106 50/47/106 58/74/106
f 50/47/107 40/67/107 58/74/107
f 51/56/108 56/68/108 40/67/108
f 51/56/109 54/55/109 56/68/109
f 54/55/110 39/64/110 56/68/110
f 54/53/111 55/65/111 39/64/111
f 54/53/112 52/52/112 55/65/112
f 52/52/113 38/61/113 55/65/113
f 52/50/114 53/62/114 38/61/114
f 52/50/115 47/49/115 53/62/115
f 47/49/116 37/102/116 53/62/116
f 50/47/117 51/103/117 40/67/117
f 50/47/118 48/46/118 51/103/118
f 48/46/119 35/104/119 51/103/119
f 47/44/120 49/59/120 37/58/120
f 47/44/121 48/43/121 49/59/121
f 48/43/122 36/45/122 49/59/122
o Cube_Cube.001
v -0.019803 -0.958156 0.068504
v -0.019803 -0.278448 0.068504
v -0.019803 -0.958156 0.028899
v -0.019803 -0.278448 0.028899
v 0.019803 -0.958156 0.068504
v 0.019803 -0.278448 0.068504
v 0.019803 -0.958156 0.028899
v 0.019803 -0.278448 0.028899
v -0.019803 -0.922433 0.068504
v -0.019803 -0.922433 0.028899
v 0.019803 -0.922433 0.028899
v 0.019803 -0.922433 0.068504
v 0.123220 -0.958156 0.192517
v 0.123220 -0.922433 0.192517
v 0.083614 -0.922433 0.192517
v 0.083614 -0.958156 0.192517
v 0.170164 -0.958156 0.028899
v 0.170164 -0.922433 0.028899
v 0.170164 -0.922433 0.068504
v 0.170164 -0.958156 0.068504
v 0.083614 -0.958156 -0.095114
v 0.083614 -0.922433 -0.095114
v 0.123220 -0.922433 -0.095114
v 0.123220 -0.958156 -0.095114
vt 0.399383 0.000000
vt 0.625000 0.000000
vt 0.625000 0.250000
vt 0.399383 0.250000
vt 0.625000 0.500000
vt 0.399383 0.500000
vt 0.625000 0.750000
vt 0.399383 0.750000
vt 0.625000 1.000000
vt 0.399383 1.000000
vt 0.125000 0.500000
vt 0.375000 0.500000
vt 0.375000 0.750000
vt 0.125000 0.750000
vt 0.875000 0.500000
vt 0.875000 0.750000
vt 0.375000 0.000000
vt 0.375000 0.250000
vt 0.375000 0.750000
vt 0.399383 0.750000
vt 0.399383 1.000000
vt 0.375000 1.000000
vt 0.375000 1.000000
vt 0.375000 0.500000
vt 0.399383 0.500000
vt 0.399383 0.750000
vt 0.375000 0.750000
vt 0.375000 0.250000
vt 0.399383 0.250000
vt 0.399383 0.500000
vt 0.375000 0.500000
vn -1.0000 0.0000 0.0000
vn 0.0000 0.0000 -1.0000
vn 1.0000 0.0000 0.0000
vn 0.0000 0.0000 1.0000
vn 0.0000 -1.0000 0.0000
vn 0.0000 1.0000 0.0000
vn 0.7680 0.0000 -0.6405
vn -0.7680 0.0000 0.6405
vn -0.7680 0.0000 -0.6405
vn 0.7680 0.0000 0.6405
usemtl feet
s off
f 85/105/123 78/106/123 80/107/123 86/108/123
f 86/108/124 80/107/124 84/109/124 87/110/124
f 87/110/125 84/109/125 82/111/125 88/112/125
f 88/112/126 82/111/126 78/113/126 85/114/126
f 79/115/127 83/116/127 81/117/127 77/118/127
f 84/109/128 80/119/128 78/120/128 82/111/128
f 77/121/123 85/105/123 86/108/123 79/122/123
f 89/123/126 90/124/126 91/125/126 92/126/126
f 88/112/129 90/124/129 89/123/129 81/117/129
f 85/114/128 91/125/128 90/124/128 88/112/128
f 77/127/130 92/126/130 91/125/130 85/114/130
f 81/117/127 89/123/127 92/126/127 77/127/127
f 93/128/125 94/129/125 95/130/125 96/131/125
f 87/110/124 94/129/124 93/128/124 83/116/124
f 88/112/128 95/130/128 94/129/128 87/110/128
f 81/117/126 96/131/126 95/130/126 88/112/126
f 83/116/127 93/128/127 96/131/127 81/117/127
f 97/132/124 98/133/124 99/134/124 100/135/124
f 86/108/131 98/133/131 97/132/131 79/122/131
f 87/110/128 99/134/128 98/133/128 86/108/128
f 83/116/132 100/135/132 99/134/132 87/110/132
f 79/122/127 97/132/127 100/135/127 83/116/127
o Cube.001_Cube.002
v -0.019803 -0.958156 0.423974
v -0.019803 -0.278448 0.423974
v -0.019803 -0.958156 0.384368
v -0.019803 -0.278448 0.384368
v 0.019803 -0.958156 0.423974
v 0.019803 -0.278448 0.423974
v 0.019803 -0.958156 0.384368
v 0.019803 -0.278448 0.384368
v -0.019803 -0.922433 0.423974
v -0.019803 -0.922433 0.384368
v 0.019803 -0.922433 0.384368
v 0.019803 -0.922433 0.423974
v 0.123220 -0.958156 0.547987
v 0.123220 -0.922433 0.547987
v 0.083614 -0.922433 0.547987
v 0.083614 -0.958156 0.547987
v 0.170164 -0.958156 0.384368
v 0.170164 -0.922433 0.384368
v 0.170164 -0.922433 0.423974
v 0.170164 -0.958156 0.423974
v 0.083614 -0.958156 0.260356
v 0.083614 -0.922433 0.260356
v 0.123220 -0.922433 0.260356
v 0.123220 -0.958156 0.260356
vt 0.399383 0.000000
vt 0.625000 0.000000
vt 0.625000 0.250000
vt 0.399383 0.250000
vt 0.625000 0.500000
vt 0.399383 0.500000
vt 0.625000 0.750000
vt 0.399383 0.750000
vt 0.625000 1.000000
vt 0.399383 1.000000
vt 0.125000 0.500000
vt 0.375000 0.500000
vt 0.375000 0.750000
vt 0.125000 0.750000
vt 0.875000 0.500000
vt 0.875000 0.750000
vt 0.375000 0.000000
vt 0.375000 0.250000
vt 0.375000 0.750000
vt 0.399383 0.750000
vt 0.399383 1.000000
vt 0.375000 1.000000
vt 0.375000 1.000000
vt 0.375000 0.500000
vt 0.399383 0.500000
vt 0.399383 0.750000
vt 0.375000 0.750000
vt 0.375000 0.250000
vt 0.399383 0.250000
vt 0.399383 0.500000
vt 0.375000 0.500000
vn -1.0000 0.0000 0.0000
vn 0.0000 0.0000 -1.0000
vn 1.0000 0.0000 0.0000
vn 0.0000 0.0000 1.0000
vn 0.0000 -1.0000 0.0000
vn 0.0000 1.0000 0.0000
vn 0.7680 0.0000 -0.6405
vn -0.7680 0.0000 0.6405
vn -0.7680 0.0000 -0.6405
vn 0.7680 0.0000 0.6405
usemtl feet
s off
f 109/136/133 102/137/133 104/138/133 110/139/133
f 110/139/134 104/138/134 108/140/134 111/141/134
f 111/141/135 108/140/135 106/142/135 112/143/135
f 112/143/136 106/142/136 102/144/136 109/145/136
f 103/146/137 107/147/137 105/148/137 101/149/137
f 108/140/138 104/150/138 102/151/138 106/142/138
f 101/152/133 109/136/133 110/139/133 103/153/133
f 113/154/136 114/155/136 115/156/136 116/157/136
f 112/143/139 114/155/139 113/154/139 105/148/139
f 109/145/138 115/156/138 114/155/138 112/143/138
f 101/158/140 116/157/140 115/156/140 109/145/140
f 105/148/137 113/154/137 116/157/137 101/158/137
f 117/159/135 118/160/135 119/161/135 120/162/135
f 111/141/134 118/160/134 117/159/134 107/147/134
f 112/143/138 119/161/138 118/160/138 111/141/138
f 105/148/136 120/162/136 119/161/136 112/143/136
f 107/147/137 117/159/137 120/162/137 105/148/137
f 121/163/134 122/164/134 123/165/134 124/166/134
f 110/139/141 122/164/141 121/163/141 103/153/141
f 111/141/138 123/165/138 122/164/138 110/139/138
f 107/147/142 124/166/142 123/165/142 111/141/142
f 103/153/137 121/163/137 124/166/137 107/147/137
