# Blender v2.80 (sub 75) OBJ File: ''
# www.blender.org
mtllib head.mtl
o Icosphere
v 0.723607 -0.804995 0.525725
v -0.276388 -0.804996 0.850649
v -0.894426 -0.804988 0.000000
v -0.276388 -0.804996 -0.850649
v 0.723607 -0.804995 -0.525725
v 0.340998 0.727085 1.049502
v -0.892762 0.727085 0.648622
v -0.892762 0.727085 -0.648622
v 0.340998 0.727085 -1.049502
v 1.103513 0.727076 0.000000
v 0.000001 2.049184 0.000000
v -0.162456 -1.531178 0.499995
v 0.425323 -1.531178 0.309011
v 0.262869 -0.946328 0.809012
v 0.850648 -0.946325 0.000000
v 0.425323 -1.531178 -0.309011
v -0.525730 -1.531173 0.000000
v -0.688189 -0.946325 0.499997
v -0.162456 -1.531178 -0.499995
v -0.688189 -0.946325 -0.499997
v 0.262869 -0.946328 -0.809012
v 0.951058 -0.000000 0.309013
v 0.951058 -0.000000 -0.309013
v 0.000000 -0.000000 1.000000
v 0.587786 -0.000000 0.809017
v -0.951058 -0.000000 0.309013
v -0.587786 -0.000000 0.809017
v -0.587786 -0.000000 -0.809017
v -0.951058 -0.000000 -0.309013
v 0.587786 -0.000000 -0.809017
v 0.000000 -0.000000 -1.000000
v 0.849065 0.901453 0.616879
v -0.324318 0.901456 0.998131
v -1.049500 0.901452 0.000000
v -0.324318 0.901456 -0.998131
v 0.849065 0.901453 -0.616879
v 0.268960 1.604125 0.827785
v 0.870392 1.604117 0.000000
v -0.704158 1.604125 0.511595
v -0.704158 1.604125 -0.511595
v 0.268960 1.604125 -0.827785
v -0.114791 -2.052914 0.353297
v -0.371481 -2.052910 0.000000
v -0.114791 -2.052914 -0.353297
v 0.300534 -2.052913 0.218348
v 0.300534 -2.052913 -0.218348
v -0.114791 -3.132765 0.353297
v 0.000000 -3.322715 0.000000
v -0.371481 -3.132761 0.000000
v -0.114791 -3.132765 -0.353297
v 0.300533 -3.132765 0.218348
v 0.300533 -3.132765 -0.218348
vt 0.772726 0.078731
vt 0.863635 0.078731
vt 0.863635 0.078731
vt 0.772726 0.078731
vt 0.727272 0.157461
vt 0.681818 0.078731
vt 0.636363 0.157461
vt 0.227273 0.078731
vt 0.318182 0.078731
vt 0.318182 0.078731
vt 0.227273 0.078731
vt 0.409090 0.078731
vt 0.500000 0.078731
vt 0.500000 0.078731
vt 0.409090 0.078731
vt 0.045454 0.078731
vt 0.136363 0.078731
vt 0.136363 0.078731
vt 0.045454 0.078731
vt 0.681818 0.236191
vt 0.909090 0.157461
vt 0.818181 0.157461
vt 0.863635 0.236191
vt 0.181818 0.157461
vt 0.090909 0.157461
vt 0.136363 0.236191
vt 0.363636 0.157461
vt 0.272727 0.157461
vt 0.318182 0.236191
vt 0.545454 0.157461
vt 0.454545 0.157461
vt 0.500000 0.236191
vt 0.772726 0.236191
vt 0.954545 0.236191
vt 0.227273 0.236191
vt 0.409090 0.236191
vt 0.590909 0.236191
vt 0.818181 0.314921
vt 0.727272 0.314921
vt 0.772726 0.393651
vt 1.000000 0.314921
vt 0.909091 0.314921
vt 0.954545 0.393651
vt 0.272727 0.314921
vt 0.181818 0.314921
vt 0.227273 0.393651
vt 0.454545 0.314921
vt 0.363636 0.314921
vt 0.409090 0.393651
vt 0.636363 0.314921
vt 0.545454 0.314921
vt 0.590909 0.393651
vt 0.500000 0.393651
vt 0.545454 0.472382
vt 0.318182 0.393651
vt 0.363636 0.472382
vt 0.136363 0.393651
vt 0.181818 0.472382
vt 0.090909 0.314921
vt 0.863635 0.393651
vt 0.909090 0.472382
vt 0.681818 0.393651
vt 0.727272 0.472382
vt 0.045454 0.236191
vt 0.000000 0.157461
vt 0.590909 0.078731
vt 0.681818 0.078731
vt 0.590909 0.078731
vt 0.863635 0.078731
vt 0.772726 0.078731
vt 0.318182 0.078731
vt 0.227273 0.078731
vt 0.681818 0.078731
vt 0.590909 0.078731
vt 0.500000 0.078731
vt 0.409090 0.078731
vt 0.136363 0.078731
vt 0.045454 0.078731
vt 0.818181 0.000000
vt 0.090909 0.000000
vt 0.272727 0.000000
vt 0.454545 0.000000
vt 0.636363 0.000000
vn 0.3005 -0.2326 0.9250
vn 0.8386 -0.4402 0.3210
vn -0.7868 -0.2326 -0.5717
vn 0.3005 -0.2326 -0.9250
vn -0.7868 -0.2326 0.5717
vn 0.9412 -0.1909 0.2788
vn 0.0257 -0.1909 0.9813
vn -0.9253 -0.1909 0.3277
vn -0.5976 -0.1909 -0.7787
vn 0.5560 -0.1909 -0.8090
vn 0.8070 -0.0702 0.5863
vn -0.3083 -0.0702 0.9487
vn -0.9975 -0.0702 0.0000
vn -0.3083 -0.0702 -0.9487
vn 0.8070 -0.0702 -0.5863
vn 0.5787 0.2442 0.7781
vn -0.5612 0.2442 0.7908
vn -0.9256 0.2442 -0.2893
vn -0.0109 0.2442 -0.9697
vn 0.9188 0.2442 -0.3100
vn 0.4322 0.8453 -0.3140
vn 0.7261 0.4411 -0.5275
vn 0.5787 0.2442 -0.7781
vn -0.1651 0.8453 -0.5081
vn -0.2773 0.4411 -0.8535
vn -0.5612 0.2442 -0.7908
vn -0.5343 0.8453 0.0000
vn -0.8975 0.4411 0.0000
vn -0.9256 0.2442 0.2893
vn -0.1651 0.8453 0.5081
vn -0.2773 0.4411 0.8535
vn -0.0109 0.2442 0.9697
vn 0.4322 0.8453 0.3140
vn 0.7261 0.4411 0.5275
vn 0.9188 0.2442 0.3100
vn 0.9212 -0.0283 -0.3880
vn 0.8042 -0.1086 -0.5843
vn 0.6537 -0.0283 -0.7563
vn -0.0843 -0.0283 -0.9960
vn -0.3072 -0.1086 -0.9454
vn -0.5173 -0.0283 -0.8554
vn -0.9733 -0.0283 -0.2276
vn -0.9941 -0.1086 0.0000
vn -0.9733 -0.0283 0.2276
vn -0.5173 -0.0283 0.8554
vn -0.3072 -0.1086 0.9454
vn -0.0843 -0.0283 0.9960
vn 0.6537 -0.0283 0.7563
vn 0.8042 -0.1086 0.5843
vn 0.9212 -0.0283 0.3880
vn 0.3024 -0.2052 -0.9308
vn 0.3073 -0.1055 -0.9457
vn 0.0257 -0.1909 -0.9813
vn -0.7918 -0.2052 -0.5753
vn -0.8045 -0.1055 -0.5845
vn -0.9253 -0.1909 -0.3277
vn -0.7918 -0.2052 0.5753
vn -0.8045 -0.1055 0.5845
vn -0.5976 -0.1909 0.7787
vn 0.3024 -0.2052 0.9308
vn 0.3073 -0.1055 0.9457
vn 0.5560 -0.1909 0.8090
vn 0.9787 -0.2052 0.0000
vn 0.9944 -0.1055 0.0000
vn 0.9412 -0.1909 -0.2788
vn 0.5644 -0.4402 -0.6983
vn 0.2499 -0.5882 -0.7692
vn -0.0461 -0.4402 -0.8967
vn -0.4897 -0.4402 -0.7526
vn -0.6543 -0.5882 -0.4754
vn -0.8671 -0.4402 -0.2332
vn -0.8671 -0.4402 0.2332
vn -0.6543 -0.5882 0.4754
vn -0.4897 -0.4402 0.7526
vn 0.8386 -0.4402 -0.3210
vn 0.8088 -0.5882 0.0000
vn 0.9726 -0.2326 0.0000
vn -0.0461 -0.4402 0.8967
vn 0.2499 -0.5882 0.7692
vn 0.5644 -0.4402 0.6983
vn 0.3090 -0.0000 0.9511
vn -0.8090 0.0000 -0.5878
vn 1.0000 -0.0000 0.0000
vn 0.3090 -0.0000 -0.9511
vn -0.8090 0.0000 0.5878
vn 0.1651 -0.8453 0.5081
vn -0.4322 -0.8453 0.3140
vn -0.4322 -0.8453 -0.3140
vn 0.1651 -0.8453 -0.5081
vn 0.5343 -0.8453 0.0000
usemtl head
s off
f 13/1/1 12/2/1 42/3/1 45/4/1
f 1/5/2 13/6/2 15/7/2
f 17/8/3 19/9/3 44/10/3 43/11/3
f 19/12/4 16/13/4 46/14/4 44/15/4
f 12/16/5 17/17/5 43/18/5 42/19/5
f 1/5/6 15/7/6 22/20/6
f 2/21/7 14/22/7 24/23/7
f 3/24/8 18/25/8 26/26/8
f 4/27/9 20/28/9 28/29/9
f 5/30/10 21/31/10 30/32/10
f 1/5/11 22/20/11 25/33/11
f 2/21/12 24/23/12 27/34/12
f 3/24/13 26/26/13 29/35/13
f 4/27/14 28/29/14 31/36/14
f 5/30/15 30/32/15 23/37/15
f 6/38/16 32/39/16 37/40/16
f 7/41/17 33/42/17 39/43/17
f 8/44/18 34/45/18 40/46/18
f 9/47/19 35/48/19 41/49/19
f 10/50/20 36/51/20 38/52/20
f 38/52/21 41/53/21 11/54/21
f 38/52/22 36/51/22 41/53/22
f 36/51/23 9/47/23 41/53/23
f 41/49/24 40/55/24 11/56/24
f 41/49/25 35/48/25 40/55/25
f 35/48/26 8/44/26 40/55/26
f 40/46/27 39/57/27 11/58/27
f 40/46/28 34/45/28 39/57/28
f 34/45/29 7/59/29 39/57/29
f 39/43/30 37/60/30 11/61/30
f 39/43/31 33/42/31 37/60/31
f 33/42/32 6/38/32 37/60/32
f 37/40/33 38/62/33 11/63/33
f 37/40/34 32/39/34 38/62/34
f 32/39/35 10/50/35 38/62/35
f 23/37/36 36/51/36 10/50/36
f 23/37/37 30/32/37 36/51/37
f 30/32/38 9/47/38 36/51/38
f 31/36/39 35/48/39 9/47/39
f 31/36/40 28/29/40 35/48/40
f 28/29/41 8/44/41 35/48/41
f 29/35/42 34/45/42 8/44/42
f 29/35/43 26/26/43 34/45/43
f 26/26/44 7/59/44 34/45/44
f 27/34/45 33/42/45 7/41/45
f 27/34/46 24/23/46 33/42/46
f 24/23/47 6/38/47 33/42/47
f 25/33/48 32/39/48 6/38/48
f 25/33/49 22/20/49 32/39/49
f 22/20/50 10/50/50 32/39/50
f 30/32/51 31/36/51 9/47/51
f 30/32/52 21/31/52 31/36/52
f 21/31/53 4/27/53 31/36/53
f 28/29/54 29/35/54 8/44/54
f 28/29/55 20/28/55 29/35/55
f 20/28/56 3/24/56 29/35/56
f 26/26/57 27/64/57 7/59/57
f 26/26/58 18/25/58 27/64/58
f 18/25/59 2/65/59 27/64/59
f 24/23/60 25/33/60 6/38/60
f 24/23/61 14/22/61 25/33/61
f 14/22/62 1/5/62 25/33/62
f 22/20/63 23/37/63 10/50/63
f 22/20/64 15/7/64 23/37/64
f 15/7/65 5/30/65 23/37/65
f 16/13/66 21/31/66 5/30/66
f 16/13/67 19/12/67 21/31/67
f 19/12/68 4/27/68 21/31/68
f 19/9/69 20/28/69 4/27/69
f 19/9/70 17/8/70 20/28/70
f 17/8/71 3/24/71 20/28/71
f 17/17/72 18/25/72 3/24/72
f 17/17/73 12/16/73 18/25/73
f 12/16/74 2/65/74 18/25/74
f 15/7/75 16/66/75 5/30/75
f 15/7/76 13/6/76 16/66/76
f 16/66/77 13/6/77 45/67/77 46/68/77
f 12/2/78 14/22/78 2/21/78
f 12/2/79 13/1/79 14/22/79
f 13/1/80 1/5/80 14/22/80
f 45/4/81 42/3/81 47/69/81 51/70/81
f 43/11/82 44/10/82 50/71/82 49/72/82
f 46/68/83 45/67/83 51/73/83 52/74/83
f 44/15/84 46/14/84 52/75/84 50/76/84
f 42/19/85 43/18/85 49/77/85 47/78/85
f 48/79/86 51/70/86 47/69/86
f 48/80/87 47/78/87 49/77/87
f 48/81/88 49/72/88 50/71/88
f 48/82/89 50/76/89 52/75/89
f 51/73/90 48/83/90 52/74/90
o Icosphere.001
v -0.396837 -0.888200 -0.762823
v -0.179755 -0.722366 -0.605105
v -0.479753 -0.722366 -0.507628
v -0.665165 -0.722364 -0.762823
v -0.479753 -0.722366 -1.018018
v -0.179755 -0.722366 -0.920541
v -0.313920 -0.454034 -0.507628
v -0.613919 -0.454034 -0.605105
v -0.613919 -0.454034 -0.920541
v -0.313920 -0.454034 -1.018018
v -0.128509 -0.454035 -0.762823
v -0.396837 -0.288200 -0.762823
v -0.445574 -0.843396 -0.612824
v -0.269240 -0.843396 -0.670120
v -0.317976 -0.745921 -0.520120
v -0.141642 -0.745921 -0.762823
v -0.269240 -0.843396 -0.855527
v -0.554556 -0.843395 -0.762823
v -0.603294 -0.745921 -0.612824
v -0.445574 -0.843396 -0.912822
v -0.603294 -0.745921 -0.912822
v -0.317976 -0.745921 -1.005527
v -0.111519 -0.588200 -0.670119
v -0.111519 -0.588200 -0.855527
v -0.396837 -0.588200 -0.462823
v -0.220501 -0.588200 -0.520118
v -0.682154 -0.588200 -0.670119
v -0.573173 -0.588200 -0.520118
v -0.573173 -0.588200 -1.005528
v -0.682154 -0.588200 -0.855527
v -0.220501 -0.588200 -1.005528
v -0.396837 -0.588200 -1.062823
v -0.190380 -0.430479 -0.612824
v -0.475698 -0.430478 -0.520120
v -0.652031 -0.430479 -0.762823
v -0.475698 -0.430478 -1.005527
v -0.190380 -0.430479 -0.912822
v -0.348100 -0.333003 -0.612824
v -0.239118 -0.333004 -0.762823
v -0.524434 -0.333003 -0.670120
v -0.524434 -0.333003 -0.855527
v -0.348100 -0.333003 -0.912822
vt 0.818181 0.000000
vt 0.772726 0.078731
vt 0.863635 0.078731
vt 0.727272 0.157461
vt 0.681818 0.078731
vt 0.636363 0.157461
vt 0.090909 0.000000
vt 0.045454 0.078731
vt 0.136363 0.078731
vt 0.272727 0.000000
vt 0.227273 0.078731
vt 0.318182 0.078731
vt 0.454545 0.000000
vt 0.409090 0.078731
vt 0.500000 0.078731
vt 0.681818 0.236191
vt 0.909090 0.157461
vt 0.818181 0.157461
vt 0.863635 0.236191
vt 0.181818 0.157461
vt 0.090909 0.157461
vt 0.136363 0.236191
vt 0.363636 0.157461
vt 0.272727 0.157461
vt 0.318182 0.236191
vt 0.545454 0.157461
vt 0.454545 0.157461
vt 0.500000 0.236191
vt 0.772726 0.236191
vt 0.954545 0.236191
vt 0.227273 0.236191
vt 0.409090 0.236191
vt 0.590909 0.236191
vt 0.818181 0.314921
vt 0.727272 0.314921
vt 0.772726 0.393651
vt 1.000000 0.314921
vt 0.909091 0.314921
vt 0.954545 0.393651
vt 0.272727 0.314921
vt 0.181818 0.314921
vt 0.227273 0.393651
vt 0.454545 0.314921
vt 0.363636 0.314921
vt 0.409090 0.393651
vt 0.636363 0.314921
vt 0.545454 0.314921
vt 0.590909 0.393651
vt 0.500000 0.393651
vt 0.545454 0.472382
vt 0.318182 0.393651
vt 0.363636 0.472382
vt 0.136363 0.393651
vt 0.181818 0.472382
vt 0.090909 0.314921
vt 0.863635 0.393651
vt 0.909090 0.472382
vt 0.681818 0.393651
vt 0.727272 0.472382
vt 0.045454 0.236191
vt 0.000000 0.157461
vt 0.590909 0.078731
vt 0.636363 0.000000
vn 0.1024 -0.9435 0.3151
vn 0.7002 -0.6617 0.2680
vn -0.2680 -0.9435 0.1947
vn -0.2680 -0.9435 -0.1947
vn 0.1024 -0.9435 -0.3151
vn 0.9050 -0.3304 0.2680
vn 0.0247 -0.3304 0.9435
vn -0.8897 -0.3304 0.3151
vn -0.5746 -0.3304 -0.7488
vn 0.5346 -0.3304 -0.7779
vn 0.8026 -0.1256 0.5831
vn -0.3066 -0.1256 0.9435
vn -0.9921 -0.1256 0.0000
vn -0.3066 -0.1256 -0.9435
vn 0.8026 -0.1256 -0.5831
vn 0.4089 0.6617 0.6284
vn -0.4713 0.6617 0.5831
vn -0.7002 0.6617 -0.2680
vn 0.0385 0.6617 -0.7488
vn 0.7240 0.6617 -0.1947
vn 0.2680 0.9435 -0.1947
vn 0.4911 0.7947 -0.3568
vn 0.4089 0.6617 -0.6284
vn -0.1024 0.9435 -0.3151
vn -0.1876 0.7947 -0.5773
vn -0.4713 0.6617 -0.5831
vn -0.3313 0.9435 0.0000
vn -0.6071 0.7947 0.0000
vn -0.7002 0.6617 0.2680
vn -0.1024 0.9435 0.3151
vn -0.1876 0.7947 0.5773
vn 0.0385 0.6617 0.7488
vn 0.2680 0.9435 0.1947
vn 0.4911 0.7947 0.3568
vn 0.7240 0.6617 0.1947
vn 0.8897 0.3304 -0.3151
vn 0.7947 0.1876 -0.5773
vn 0.5746 0.3304 -0.7488
vn -0.0247 0.3304 -0.9435
vn -0.3035 0.1876 -0.9342
vn -0.5346 0.3304 -0.7779
vn -0.9050 0.3304 -0.2680
vn -0.9822 0.1876 0.0000
vn -0.9050 0.3304 0.2680
vn -0.5346 0.3304 0.7779
vn -0.3035 0.1876 0.9342
vn -0.0247 0.3304 0.9435
vn 0.5746 0.3304 0.7488
vn 0.7947 0.1876 0.5773
vn 0.8897 0.3304 0.3151
vn 0.3066 0.1256 -0.9435
vn 0.3035 -0.1876 -0.9342
vn 0.0247 -0.3304 -0.9435
vn -0.8026 0.1256 -0.5831
vn -0.7947 -0.1876 -0.5773
vn -0.8897 -0.3304 -0.3151
vn -0.8026 0.1256 0.5831
vn -0.7947 -0.1876 0.5773
vn -0.5746 -0.3304 0.7488
vn 0.3066 0.1256 0.9435
vn 0.3035 -0.1876 0.9342
vn 0.5346 -0.3304 0.7779
vn 0.9921 0.1256 0.0000
vn 0.9822 -0.1876 0.0000
vn 0.9050 -0.3304 -0.2680
vn 0.4713 -0.6617 -0.5831
vn 0.1876 -0.7947 -0.5773
vn -0.0385 -0.6617 -0.7488
vn -0.4089 -0.6617 -0.6284
vn -0.4911 -0.7947 -0.3568
vn -0.7240 -0.6617 -0.1947
vn -0.7240 -0.6617 0.1947
vn -0.4911 -0.7947 0.3568
vn -0.4089 -0.6617 0.6284
vn 0.7002 -0.6617 -0.2680
vn 0.6071 -0.7947 0.0000
vn 0.3313 -0.9435 0.0000
vn -0.0385 -0.6617 0.7488
vn 0.1876 -0.7947 0.5773
vn 0.4713 -0.6617 0.5831
usemtl eyes
s off
f 53/84/91 66/85/91 65/86/91
f 54/87/92 66/88/92 68/89/92
f 53/90/93 65/91/93 70/92/93
f 53/93/94 70/94/94 72/95/94
f 53/96/95 72/97/95 69/98/95
f 54/87/96 68/89/96 75/99/96
f 55/100/97 67/101/97 77/102/97
f 56/103/98 71/104/98 79/105/98
f 57/106/99 73/107/99 81/108/99
f 58/109/100 74/110/100 83/111/100
f 54/87/101 75/99/101 78/112/101
f 55/100/102 77/102/102 80/113/102
f 56/103/103 79/105/103 82/114/103
f 57/106/104 81/108/104 84/115/104
f 58/109/105 83/111/105 76/116/105
f 59/117/106 85/118/106 90/119/106
f 60/120/107 86/121/107 92/122/107
f 61/123/108 87/124/108 93/125/108
f 62/126/109 88/127/109 94/128/109
f 63/129/110 89/130/110 91/131/110
f 91/131/111 94/132/111 64/133/111
f 91/131/112 89/130/112 94/132/112
f 89/130/113 62/126/113 94/132/113
f 94/128/114 93/134/114 64/135/114
f 94/128/115 88/127/115 93/134/115
f 88/127/116 61/123/116 93/134/116
f 93/125/117 92/136/117 64/137/117
f 93/125/118 87/124/118 92/136/118
f 87/124/119 60/138/119 92/136/119
f 92/122/120 90/139/120 64/140/120
f 92/122/121 86/121/121 90/139/121
f 86/121/122 59/117/122 90/139/122
f 90/119/123 91/141/123 64/142/123
f 90/119/124 85/118/124 91/141/124
f 85/118/125 63/129/125 91/141/125
f 76/116/126 89/130/126 63/129/126
f 76/116/127 83/111/127 89/130/127
f 83/111/128 62/126/128 89/130/128
f 84/115/129 88/127/129 62/126/129
f 84/115/130 81/108/130 88/127/130
f 81/108/131 61/123/131 88/127/131
f 82/114/132 87/124/132 61/123/132
f 82/114/133 79/105/133 87/124/133
f 79/105/134 60/138/134 87/124/134
f 80/113/135 86/121/135 60/120/135
f 80/113/136 77/102/136 86/121/136
f 77/102/137 59/117/137 86/121/137
f 78/112/138 85/118/138 59/117/138
f 78/112/139 75/99/139 85/118/139
f 75/99/140 63/129/140 85/118/140
f 83/111/141 84/115/141 62/126/141
f 83/111/142 74/110/142 84/115/142
f 74/110/143 57/106/143 84/115/143
f 81/108/144 82/114/144 61/123/144
f 81/108/145 73/107/145 82/114/145
f 73/107/146 56/103/146 82/114/146
f 79/105/147 80/143/147 60/138/147
f 79/105/148 71/104/148 80/143/148
f 71/104/149 55/144/149 80/143/149
f 77/102/150 78/112/150 59/117/150
f 77/102/151 67/101/151 78/112/151
f 67/101/152 54/87/152 78/112/152
f 75/99/153 76/116/153 63/129/153
f 75/99/154 68/89/154 76/116/154
f 68/89/155 58/109/155 76/116/155
f 69/98/156 74/110/156 58/109/156
f 69/98/157 72/97/157 74/110/157
f 72/97/158 57/106/158 74/110/158
f 72/95/159 73/107/159 57/106/159
f 72/95/160 70/94/160 73/107/160
f 70/94/161 56/103/161 73/107/161
f 70/92/162 71/104/162 56/103/162
f 70/92/163 65/91/163 71/104/163
f 65/91/164 55/144/164 71/104/164
f 68/89/165 69/145/165 58/109/165
f 68/89/166 66/88/166 69/145/166
f 66/88/167 53/146/167 69/145/167
f 65/86/168 67/101/168 55/100/168
f 65/86/169 66/85/169 67/101/169
f 66/85/170 54/87/170 67/101/170
o Icosphere.002_Icosphere.003
v 0.691250 -0.888200 -0.455173
v 0.908332 -0.722366 -0.297456
v 0.608334 -0.722366 -0.199978
v 0.422922 -0.722364 -0.455173
v 0.608334 -0.722366 -0.710368
v 0.908332 -0.722366 -0.612891
v 0.774167 -0.454034 -0.199978
v 0.474168 -0.454034 -0.297456
v 0.474168 -0.454034 -0.612891
v 0.774167 -0.454034 -0.710368
v 0.959578 -0.454035 -0.455173
v 0.691250 -0.288200 -0.455173
v 0.642514 -0.843396 -0.305175
v 0.818847 -0.843396 -0.362470
v 0.770111 -0.745921 -0.212470
v 0.946445 -0.745921 -0.455173
v 0.818847 -0.843396 -0.547877
v 0.533531 -0.843395 -0.455173
v 0.484793 -0.745921 -0.305174
v 0.642514 -0.843396 -0.605172
v 0.484793 -0.745921 -0.605172
v 0.770111 -0.745921 -0.697877
v 0.976568 -0.588200 -0.362469
v 0.976568 -0.588200 -0.547877
v 0.691250 -0.588200 -0.155173
v 0.867586 -0.588200 -0.212468
v 0.405933 -0.588200 -0.362469
v 0.514915 -0.588200 -0.212468
v 0.514915 -0.588200 -0.697878
v 0.405933 -0.588200 -0.547877
v 0.867586 -0.588200 -0.697878
v 0.691250 -0.588200 -0.755173
v 0.897707 -0.430479 -0.305174
v 0.612390 -0.430478 -0.212470
v 0.436056 -0.430479 -0.455173
v 0.612390 -0.430478 -0.697877
v 0.897707 -0.430479 -0.605172
v 0.739987 -0.333003 -0.305175
v 0.848969 -0.333004 -0.455173
v 0.563653 -0.333003 -0.362470
v 0.563653 -0.333003 -0.547877
v 0.739987 -0.333003 -0.605172
vt 0.818181 0.000000
vt 0.772726 0.078731
vt 0.863635 0.078731
vt 0.727272 0.157461
vt 0.681818 0.078731
vt 0.636363 0.157461
vt 0.090909 0.000000
vt 0.045454 0.078731
vt 0.136363 0.078731
vt 0.272727 0.000000
vt 0.227273 0.078731
vt 0.318182 0.078731
vt 0.454545 0.000000
vt 0.409090 0.078731
vt 0.500000 0.078731
vt 0.681818 0.236191
vt 0.909090 0.157461
vt 0.818181 0.157461
vt 0.863635 0.236191
vt 0.181818 0.157461
vt 0.090909 0.157461
vt 0.136363 0.236191
vt 0.363636 0.157461
vt 0.272727 0.157461
vt 0.318182 0.236191
vt 0.545454 0.157461
vt 0.454545 0.157461
vt 0.500000 0.236191
vt 0.772726 0.236191
vt 0.954545 0.236191
vt 0.227273 0.236191
vt 0.409090 0.236191
vt 0.590909 0.236191
vt 0.818181 0.314921
vt 0.727272 0.314921
vt 0.772726 0.393651
vt 1.000000 0.314921
vt 0.909091 0.314921
vt 0.954545 0.393651
vt 0.272727 0.314921
vt 0.181818 0.314921
vt 0.227273 0.393651
vt 0.454545 0.314921
vt 0.363636 0.314921
vt 0.409090 0.393651
vt 0.636363 0.314921
vt 0.545454 0.314921
vt 0.590909 0.393651
vt 0.500000 0.393651
vt 0.545454 0.472382
vt 0.318182 0.393651
vt 0.363636 0.472382
vt 0.136363 0.393651
vt 0.181818 0.472382
vt 0.090909 0.314921
vt 0.863635 0.393651
vt 0.909090 0.472382
vt 0.681818 0.393651
vt 0.727272 0.472382
vt 0.045454 0.236191
vt 0.000000 0.157461
vt 0.590909 0.078731
vt 0.636363 0.000000
vn 0.1024 -0.9435 0.3151
vn 0.7002 -0.6617 0.2680
vn -0.2680 -0.9435 0.1947
vn -0.2680 -0.9435 -0.1947
vn 0.1024 -0.9435 -0.3151
vn 0.9050 -0.3304 0.2680
vn 0.0247 -0.3304 0.9435
vn -0.8897 -0.3304 0.3151
vn -0.5746 -0.3304 -0.7488
vn 0.5346 -0.3304 -0.7779
vn 0.8026 -0.1256 0.5831
vn -0.3066 -0.1256 0.9435
vn -0.9921 -0.1256 0.0000
vn -0.3066 -0.1256 -0.9435
vn 0.8026 -0.1256 -0.5831
vn 0.4089 0.6617 0.6284
vn -0.4713 0.6617 0.5831
vn -0.7002 0.6617 -0.2680
vn 0.0385 0.6617 -0.7488
vn 0.7240 0.6617 -0.1947
vn 0.2680 0.9435 -0.1947
vn 0.4911 0.7947 -0.3568
vn 0.4089 0.6617 -0.6284
vn -0.1024 0.9435 -0.3151
vn -0.1876 0.7947 -0.5773
vn -0.4713 0.6617 -0.5831
vn -0.3313 0.9435 0.0000
vn -0.6071 0.7947 0.0000
vn -0.7002 0.6617 0.2680
vn -0.1024 0.9435 0.3151
vn -0.1876 0.7947 0.5773
vn 0.0385 0.6617 0.7488
vn 0.2680 0.9435 0.1947
vn 0.4911 0.7947 0.3568
vn 0.7240 0.6617 0.1947
vn 0.8897 0.3304 -0.3151
vn 0.7947 0.1876 -0.5773
vn 0.5746 0.3304 -0.7488
vn -0.0247 0.3304 -0.9435
vn -0.3035 0.1876 -0.9342
vn -0.5346 0.3304 -0.7779
vn -0.9050 0.3304 -0.2680
vn -0.9822 0.1876 0.0000
vn -0.9050 0.3304 0.2680
vn -0.5346 0.3304 0.7779
vn -0.3035 0.1876 0.9342
vn -0.0247 0.3304 0.9435
vn 0.5746 0.3304 0.7488
vn 0.7947 0.1876 0.5773
vn 0.8897 0.3304 0.3151
vn 0.3066 0.1256 -0.9435
vn 0.3035 -0.1876 -0.9342
vn 0.0247 -0.3304 -0.9435
vn -0.8026 0.1256 -0.5831
vn -0.7947 -0.1876 -0.5773
vn -0.8897 -0.3304 -0.3151
vn -0.8026 0.1256 0.5831
vn -0.7947 -0.1876 0.5773
vn -0.5746 -0.3304 0.7488
vn 0.3066 0.1256 0.9435
vn 0.3035 -0.1876 0.9342
vn 0.5346 -0.3304 0.7779
vn 0.9921 0.1256 0.0000
vn 0.9822 -0.1876 0.0000
vn 0.9050 -0.3304 -0.2680
vn 0.4713 -0.6617 -0.5831
vn 0.1876 -0.7947 -0.5773
vn -0.0385 -0.6617 -0.7488
vn -0.4089 -0.6617 -0.6284
vn -0.4911 -0.7947 -0.3568
vn -0.7240 -0.6617 -0.1947
vn -0.7240 -0.6617 0.1947
vn -0.4911 -0.7947 0.3568
vn -0.4089 -0.6617 0.6284
vn 0.7002 -0.6617 -0.2680
vn 0.6071 -0.7947 0.0000
vn 0.3313 -0.9435 0.0000
vn -0.0385 -0.6617 0.7488
vn 0.1876 -0.7947 0.5773
vn 0.4713 -0.6617 0.5831
usemtl eyes
s off
f 95/147/171 108/148/171 107/149/171
f 96/150/172 108/151/172 110/152/172
f 95/153/173 107/154/173 112/155/173
f 95/156/174 112/157/174 114/158/174
f 95/159/175 114/160/175 111/161/175
f 96/150/176 110/152/176 117/162/176
f 97/163/177 109/164/177 119/165/177
f 98/166/178 113/167/178 121/168/178
f 99/169/179 115/170/179 123/171/179
f 100/172/180 116/173/180 125/174/180
f 96/150/181 117/162/181 120/175/181
f 97/163/182 119/165/182 122/176/182
f 98/166/183 121/168/183 124/177/183
f 99/169/184 123/171/184 126/178/184
f 100/172/185 125/174/185 118/179/185
f 101/180/186 127/181/186 132/182/186
f 102/183/187 128/184/187 134/185/187
f 103/186/188 129/187/188 135/188/188
f 104/189/189 130/190/189 136/191/189
f 105/192/190 131/193/190 133/194/190
f 133/194/191 136/195/191 106/196/191
f 133/194/192 131/193/192 136/195/192
f 131/193/193 104/189/193 136/195/193
f 136/191/194 135/197/194 106/198/194
f 136/191/195 130/190/195 135/197/195
f 130/190/196 103/186/196 135/197/196
f 135/188/197 134/199/197 106/200/197
f 135/188/198 129/187/198 134/199/198
f 129/187/199 102/201/199 134/199/199
f 134/185/200 132/202/200 106/203/200
f 134/185/201 128/184/201 132/202/201
f 128/184/202 101/180/202 132/202/202
f 132/182/203 133/204/203 106/205/203
f 132/182/204 127/181/204 133/204/204
f 127/181/205 105/192/205 133/204/205
f 118/179/206 131/193/206 105/192/206
f 118/179/207 125/174/207 131/193/207
f 125/174/208 104/189/208 131/193/208
f 126/178/209 130/190/209 104/189/209
f 126/178/210 123/171/210 130/190/210
f 123/171/211 103/186/211 130/190/211
f 124/177/212 129/187/212 103/186/212
f 124/177/213 121/168/213 129/187/213
f 121/168/214 102/201/214 129/187/214
f 122/176/215 128/184/215 102/183/215
f 122/176/216 119/165/216 128/184/216
f 119/165/217 101/180/217 128/184/217
f 120/175/218 127/181/218 101/180/218
f 120/175/219 117/162/219 127/181/219
f 117/162/220 105/192/220 127/181/220
f 125/174/221 126/178/221 104/189/221
f 125/174/222 116/173/222 126/178/222
f 116/173/223 99/169/223 126/178/223
f 123/171/224 124/177/224 103/186/224
f 123/171/225 115/170/225 124/177/225
f 115/170/226 98/166/226 124/177/226
f 121/168/227 122/206/227 102/201/227
f 121/168/228 113/167/228 122/206/228
f 113/167/229 97/207/229 122/206/229
f 119/165/230 120/175/230 101/180/230
f 119/165/231 109/164/231 120/175/231
f 109/164/232 96/150/232 120/175/232
f 117/162/233 118/179/233 105/192/233
f 117/162/234 110/152/234 118/179/234
f 110/152/235 100/172/235 118/179/235
f 111/161/236 116/173/236 100/172/236
f 111/161/237 114/160/237 116/173/237
f 114/160/238 99/169/238 116/173/238
f 114/158/239 115/170/239 99/169/239
f 114/158/240 112/157/240 115/170/240
f 112/157/241 98/166/241 115/170/241
f 112/155/242 113/167/242 98/166/242
f 112/155/243 107/154/243 113/167/243
f 107/154/244 97/207/244 113/167/244
f 110/152/245 111/208/245 100/172/245
f 110/152/246 108/151/246 111/208/246
f 108/151/247 95/209/247 111/208/247
f 107/149/248 109/164/248 97/163/248
f 107/149/249 108/148/249 109/164/249
f 108/148/250 96/150/250 109/164/250
